<svg xmlns="http://www.w3.org/2000/svg" width="60" height="41" viewBox="0 0 60 41" fill="none">
  <path d="M29.6416 39.2402C27.8072 34.7306 27.0963 29.6406 27.0578 24.79C27.0275 20.9661 26.0185 14.4206 31.2685 13.9284C36.0488 13.4802 37.8731 19.6518 37.8237 23.3067C37.7892 25.8587 35.8594 28.7928 34.1394 30.6275C33.4368 31.3769 35.7295 29.3081 36.6275 28.8092C39.0352 27.4716 41.6302 26.6518 44.3789 26.4168C45.9661 26.2812 53.3849 25.0856 53.3266 27.7087C53.2063 33.1212 44.52 35.6524 40.5032 36.9913C36.47 38.3357 31.7422 39.2402 27.9191 39.2402" stroke="#C9AF99" stroke-width="3" stroke-linecap="round"/>
  <path d="M12.8466 16.4173C9.40639 14.8119 5.77372 12.7479 3.46831 9.62282C2.37354 8.13879 0.835232 4.63393 3.39654 3.73747C5.54368 2.98597 7.49521 3.44607 8.44455 5.55571C8.7034 6.13093 9.83215 10.8362 9.83215 8.40269C9.83215 6.38082 10.3832 4.82297 12.0092 3.52215C13.3745 2.42998 17.5161 1.33885 19.1147 2.49341C21.5121 4.22484 19.8257 9.03506 18.6362 10.843C17.9675 11.8595 15.4197 17.2786 14.5691 17.2786" stroke="#C9AF99" stroke-width="3" stroke-linecap="round"/>
  <path d="M50.623 13.2352C50.9675 11.0826 51.3077 5.62656 54.8203 6.03982C57.8095 6.39149 52.2309 10.8367 55.1201 10.8367C61.295 10.8367 54.4855 15.034 51.2227 15.034" stroke="#C9AF99" stroke-width="3" stroke-linecap="round"/>
</svg>