<svg width="22" height="22" viewBox="0 0 22 22" fill="none" xmlns="http://www.w3.org/2000/svg">
<path fill-rule="evenodd" clip-rule="evenodd" d="M22 11C22 17.0751 17.0751 22 11 22C4.92487 22 0 17.0751 0 11C0 4.92487 4.92487 0 11 0C17.0751 0 22 4.92487 22 11ZM6 11C6 10.4477 6.44771 10 7 10H12.5858L10.2929 7.70711C9.90237 7.31658 9.90237 6.68342 10.2929 6.29289C10.6834 5.90237 11.3166 5.90237 11.7071 6.29289L15.7071 10.2929C16.0976 10.6834 16.0976 11.3166 15.7071 11.7071L11.7071 15.7071C11.3166 16.0976 10.6834 16.0976 10.2929 15.7071C9.90237 15.3166 9.90237 14.6834 10.2929 14.2929L12.5858 12H7C6.44771 12 6 11.5523 6 11Z" fill="#201617"/>
</svg>
