<svg xmlns="http://www.w3.org/2000/svg" width="217" height="118" viewBox="0 0 217 118" fill="none">
  <path d="M9.56179 13.6801C7.33225 35.461 4.17201 57.4862 3.5736 79.3613C3.54816 80.2912 3.21643 89.5335 3.90263 89.856C7.22448 91.4174 10.9638 91.1644 14.4541 91.8796C35.8211 96.2583 57.4118 100.412 79.0943 102.763C89.9617 103.941 100.884 104.738 111.726 106.144C122.299 107.515 132.744 109.731 143.356 110.818C156.247 112.137 169.13 113.681 182.042 114.778C189.319 115.395 196.74 114.067 204.024 114.812C206.527 115.069 205.799 111.124 206.147 108.753C208.547 92.4309 210.066 76.0216 211.75 59.565C212.527 51.9731 213.305 44.3813 214.082 36.7894C214.328 34.3825 215.209 30.8897 214.9 28.4634C214.758 27.3468 208.758 27.4243 207.85 27.1673C202.333 25.607 196.406 24.2202 190.76 23.4079C176.289 21.3256 161.63 19.6466 147.094 18.1586C122.064 15.5966 96.8268 13.0458 71.991 8.95311C56.6404 6.42352 41.122 5.09591 25.638 3.51094C23.7796 3.32071 14.5042 0.515019 13.5764 4.16338C13.1322 5.91031 13.3505 7.83552 12.9865 9.60015C12.8164 10.4244 10.8446 15.0828 10.6365 13.6261C10.3672 11.7409 10.5609 9.79464 10.7554 7.89492" stroke="#201617" stroke-width="3" stroke-linecap="round"/>
  <path d="M22.4508 74.945C19.2958 75.559 18.8787 79.3123 21.6737 77.7843C23.4823 76.7956 23.5249 73.2114 21.2693 72.9805" stroke="#201617" stroke-width="3" stroke-linecap="round"/>
  <path d="M52.5415 78.0251C49.3865 78.6392 48.9694 82.3924 51.7644 80.8645C53.573 79.8758 53.6156 76.2915 51.36 76.0606" stroke="#201617" stroke-width="3" stroke-linecap="round"/>
  <path d="M84.1538 81.261C80.9988 81.8751 80.5817 85.6283 83.3767 84.1004C85.1853 83.1117 85.2279 79.5274 82.9723 79.2965" stroke="#201617" stroke-width="3" stroke-linecap="round"/>
  <path d="M114.595 84.377C111.44 84.9911 111.023 88.7443 113.818 87.2164C115.627 86.2277 115.67 82.6434 113.414 82.4125" stroke="#201617" stroke-width="3" stroke-linecap="round"/>
  <path d="M146.208 87.6129C143.053 88.227 142.636 91.9802 145.431 90.4523C147.239 89.4636 147.282 85.8793 145.026 85.6484" stroke="#201617" stroke-width="3" stroke-linecap="round"/>
  <path d="M177.82 90.8489C174.665 91.463 174.248 95.2162 177.043 93.6883C178.852 92.6996 178.894 89.1154 176.639 88.8845" stroke="#201617" stroke-width="3" stroke-linecap="round"/>
  <path d="M56.036 66.4C56.5962 60.9267 57.1565 55.4535 57.7167 49.9802C58.2663 44.6112 58.0426 39.276 58.4386 33.9231C58.684 30.6061 57.5479 23.4157 59.7925 20.6961" stroke="#201617" stroke-width="3" stroke-linecap="round"/>
  <path d="M25.9449 63.3198C26.5051 57.8465 27.0654 52.3733 27.6256 46.9C28.1752 41.531 27.9515 36.1958 28.3475 30.8429C28.5929 27.5259 27.4568 20.3355 29.7015 17.6159" stroke="#201617" stroke-width="3" stroke-linecap="round"/>
  <path d="M118.09 72.7519C118.65 67.2786 119.21 61.8054 119.771 56.3321C120.32 50.9631 120.096 45.628 120.492 40.2751C120.738 36.9581 119.602 29.7676 121.846 27.048" stroke="#201617" stroke-width="3" stroke-linecap="round"/>
  <path d="M149.702 75.9878C150.262 70.5145 150.823 65.0412 151.383 59.568C151.933 54.1989 151.709 48.8638 152.105 43.5109C152.35 40.1939 151.214 33.0035 153.459 30.2839" stroke="#201617" stroke-width="3" stroke-linecap="round"/>
  <path d="M181.315 79.2237C181.875 73.7504 182.435 68.2771 182.996 62.8039C183.545 57.4348 183.321 52.0997 183.717 46.7468C183.963 43.4298 182.827 36.2394 185.071 33.5198" stroke="#201617" stroke-width="3" stroke-linecap="round"/>
  <path d="M87.6483 69.6358C88.2085 64.1626 88.7688 58.6893 89.329 53.216C89.8786 47.847 89.6549 42.5119 90.0509 37.159C90.2963 33.842 89.1602 26.6515 91.4048 23.9319" stroke="#201617" stroke-width="3" stroke-linecap="round"/>
</svg>