<svg width="274" height="128" viewBox="0 0 274 128" fill="none" xmlns="http://www.w3.org/2000/svg">
<path d="M142.369 33.1702C132.499 34.046 120.011 36.4768 121.062 50.289C121.823 60.2779 133.505 69.8514 142.562 66.2102C150.402 63.0583 153.049 52.9461 151.638 44.8645C150.393 37.7284 146.645 32.9255 140.631 30" stroke="white" stroke-width="3" stroke-linecap="round"/>
<path d="M112 100C114.142 91.0897 118.272 79.353 126.83 75.5439C134.237 72.2466 143.241 72.0823 150.615 75.4756C156.085 77.9928 164 85.3985 164 92.6222" stroke="white" stroke-width="3" stroke-linecap="round"/>
<path d="M71.8562 49.8607C66.9473 50.0265 58.7842 49.3543 55.8651 54.478C54.2061 57.3899 53.3317 62.7545 54.6148 65.9867C57.7704 73.9357 70.8342 74.3038 77.0879 71.1553C89.6538 64.8287 79.9258 48 68.8949 48" stroke="white" stroke-width="3" stroke-linecap="round"/>
<path d="M54 89C58.8792 75.9025 74.8156 70.8535 86.4444 75.9616C90.6122 77.7923 91.4888 81.558 94 85.2349" stroke="white" stroke-width="3" stroke-linecap="round"/>
<path d="M205.306 58.2953C198.581 53.0828 189.177 57.3412 186.725 65.1156C183.544 75.2025 191.366 79.1377 199.793 78.9963C206.826 78.8784 213.773 72.9382 209.878 65.1156C208.253 61.852 205.382 58.9122 201.804 58.9122" stroke="white" stroke-width="3" stroke-linecap="round"/>
<path d="M174 89.0345C181.647 81.5094 197.749 83.8584 206.711 86.8643C211.927 88.6137 215 92.0293 215 98" stroke="white" stroke-width="3" stroke-linecap="round"/>
<path d="M35.7695 13.1709C27.9826 9.81082 7.82496 4.08617 7.47738 18.8247C7.2108 30.1286 7.74719 41.2933 6.41763 52.5403C5.34969 61.5741 4.41711 70.7143 3.97699 79.8093C3.44702 90.761 2.24285 101.457 2.24285 112.456C2.24285 113.157 1.55247 121.738 2.49976 122.247C4.95133 123.563 10.3777 122.364 13.033 122.385C24.3936 122.474 35.7715 122.884 47.1377 123.04C79.8569 123.487 112.503 125.486 145.245 124.557C169.821 123.859 194.324 124.412 218.882 125.349C230.383 125.788 241.929 125.487 253.436 125.487C255.319 125.487 261.626 126.728 263.391 125.349C264.623 124.388 266.343 123.876 267.277 122.316C269.342 118.866 269.445 113.611 269.878 109.698C270.945 100.063 271.034 90.1889 271.034 80.4987C271.034 65.6739 269.924 50.2966 271.163 35.5101C271.47 31.8392 272.677 25.6966 271.484 21.9963C271.12 20.8688 269.484 20.0452 268.593 19.5141C265.461 17.6458 260.873 16.126 257.386 15.3772C234.422 10.447 210.557 9.46074 187.314 6.96558C173.248 5.45563 159.418 4.01939 145.277 3.82844C130.617 3.63049 116.007 2.07318 101.346 2.00132C84.5565 1.91902 68.1011 5.72451 51.3767 5.72451" stroke="white" stroke-width="3" stroke-linecap="round"/>
<path d="M109.553 38.3456C108.45 45.6226 109.32 53.5772 109.425 60.9015C109.506 66.5821 109.515 72.2588 109.553 77.939C109.57 80.4218 109.04 87.9916 111.287 89.7343C112.032 90.3123 114.331 89.7967 115.011 89.5963C122.122 87.5038 129.286 82.3659 135.176 77.8011C140.625 73.5783 145.514 68.3738 151.166 64.4883C152.278 63.7241 159.506 60.6878 157.717 59.246C147.311 50.8632 134.363 44.8173 122.429 39.3458C119.306 37.9144 112.994 36.4542 110.709 34" stroke="white" stroke-width="3" stroke-linecap="round"/>
</svg>
