<svg width="277" height="109" viewBox="0 0 277 109" fill="none" xmlns="http://www.w3.org/2000/svg">
<path d="M4.93512 18.1897C4.77683 18.9332 0.906445 31.8928 2.30349 32.5137C4.01863 33.276 6.68761 33.5746 8.5328 33.7796C11.5668 34.1167 20.3431 37.072 21.2579 33.0467C21.9654 29.9338 22.3836 27.0696 22.6237 23.8527C22.7341 22.3736 24.1349 15.3309 22.1906 14.3588C18.5316 12.5293 11.4535 13.9924 7.33357 13.9924" stroke="white" stroke-width="3" stroke-linecap="round"/>
<path d="M22.9238 2C22.8796 17.4207 21.7246 32.7811 21.7246 48.1701" stroke="white" stroke-width="3" stroke-linecap="round"/>
<path d="M33.1172 16.9902C103.79 16.9902 174.445 17.5898 245.113 17.5898C252.908 17.5898 260.703 17.5898 268.498 17.5898C270.473 17.5898 272.526 17.4258 274.494 17.5898C275.978 17.7134 275.376 21.2336 275.327 22.1869C275.223 24.2204 275.48 31.6259 272.862 32.2803C260.38 35.4008 245.632 34.1241 232.988 33.5129C190.509 31.4595 147.93 33.7388 105.504 29.8819C88.9512 28.3771 73.0167 27.1792 56.5021 28.8492C50.6407 29.442 43.9379 29.5821 38.2139 29.5821C36.2029 29.5821 35.1958 31.2009 34.8827 28.3829C34.6645 26.4192 34.336 24.2444 33.7168 22.3867" stroke="white" stroke-width="3" stroke-linecap="round"/>
<path d="M6.13508 79.9494C5.73494 84.0396 4.67113 88.1035 4.36955 92.1748C4.2935 93.2015 3.98598 95.1719 4.46949 96.1389C5.05695 97.3138 7.99047 96.7385 8.93327 96.7385C15.5211 96.7385 22.034 95.7056 28.6205 95.5726C48.8 95.1649 68.8959 96.6803 89.0148 97.9377C96.732 98.42 104.503 98.8828 112.233 99.1036C114.018 99.1546 122.23 100.355 123.559 98.8038C125.213 96.8748 122.592 90.3136 122.193 88.3772C121.719 86.0733 121.422 83.6277 121.261 81.2818C121.153 79.7181 115.723 80.549 114.665 80.549C93.7489 80.549 73.1202 76.2193 52.2719 74.886C36.1789 73.8568 20.6024 72.079 4.93585 76.3517" stroke="white" stroke-width="3" stroke-linecap="round"/>
<path d="M127.256 68.5566C126.147 81.3503 124.258 94.0849 124.258 106.932" stroke="white" stroke-width="3" stroke-linecap="round"/>
<path d="M142.246 79.3495C142.164 80.4816 139.551 95.397 140.714 95.6723C144.347 96.5327 148.306 96.1387 152.006 96.1387C161.756 96.1387 171.505 96.1387 181.254 96.1387C206.504 96.1387 231.755 96.1387 257.005 96.1387C261.88 96.1387 266.754 96.1387 271.629 96.1387C274.128 96.1387 274.76 96.1914 274.76 93.607C274.76 89.3427 275.884 82.3372 274.027 78.4168C273.716 77.7594 270.981 78.1503 270.496 78.1503C264.022 78.1503 257.537 78.2567 251.076 77.7839C229.886 76.2334 208.945 73.6764 187.65 73.3867C172.621 73.1822 158.306 74.7002 143.445 76.3515" stroke="white" stroke-width="3" stroke-linecap="round"/>
</svg>
