<svg width="24" height="24" viewBox="0 0 24 24" fill="none" xmlns="http://www.w3.org/2000/svg">
<path d="M12 1C5.96774 1 1 6.02195 1 12.2811C1 17.2303 4.15807 21.4517 8.55807 22.9801C9.12581 23.0893 9.30323 22.7254 9.30323 22.4706C9.30323 22.2159 9.30323 21.488 9.26774 20.5055C6.21613 21.2333 5.57742 18.9771 5.57742 18.9771C5.08065 17.7034 4.33549 17.3395 4.33549 17.3395C3.34193 16.6116 4.37097 16.6116 4.37097 16.6116C5.47097 16.6481 6.07419 17.7762 6.07419 17.7762C7.03226 19.523 8.66451 19.0135 9.26774 18.6859C9.37419 17.9582 9.65807 17.4487 9.97743 17.1575C7.56451 16.9028 4.97419 15.9202 4.97419 11.6262C4.97419 10.3888 5.43549 9.4063 6.10968 8.64209C6.00323 8.38735 5.61291 7.22284 6.21613 5.65804C6.21613 5.65804 7.17419 5.36691 9.26774 6.82254C10.1549 6.56781 11.0774 6.42225 12.0355 6.42225C12.9935 6.42225 13.9516 6.53141 14.8032 6.82254C16.8968 5.4033 17.8193 5.65804 17.8193 5.65804C18.4226 7.18644 18.0677 8.38735 17.9258 8.64209C18.6355 9.4063 19.0613 10.4253 19.0613 11.6262C19.0613 15.9202 16.471 16.9028 14.0581 17.1575C14.4484 17.5215 14.8032 18.2492 14.8032 19.2682C14.8032 20.7966 14.7677 21.9975 14.7677 22.3614C14.7677 22.6526 14.9807 22.9801 15.5128 22.8709C19.8419 21.3788 23 17.194 23 12.2084C22.9645 6.02195 18.0323 1 12 1Z" fill="#201617"/>
</svg>
