<svg width="22" height="22" viewBox="0 0 22 22" fill="none" xmlns="http://www.w3.org/2000/svg">
<path d="M11 0C4.96774 0 0 5.02195 0 11.2811C0 16.2303 3.15807 20.4517 7.55807 21.9801C8.12581 22.0893 8.30323 21.7254 8.30323 21.4706C8.30323 21.2159 8.30323 20.488 8.26774 19.5055C5.21613 20.2333 4.57742 17.9771 4.57742 17.9771C4.08065 16.7034 3.33549 16.3395 3.33549 16.3395C2.34193 15.6116 3.37097 15.6116 3.37097 15.6116C4.47097 15.6481 5.07419 16.7762 5.07419 16.7762C6.03226 18.523 7.66451 18.0135 8.26774 17.6859C8.37419 16.9582 8.65807 16.4487 8.97743 16.1575C6.56451 15.9028 3.97419 14.9202 3.97419 10.6262C3.97419 9.38884 4.43549 8.4063 5.10968 7.64209C5.00323 7.38735 4.61291 6.22284 5.21613 4.65804C5.21613 4.65804 6.17419 4.36691 8.26774 5.82254C9.15486 5.56781 10.0774 5.42225 11.0355 5.42225C11.9935 5.42225 12.9516 5.53141 13.8032 5.82254C15.8968 4.4033 16.8193 4.65804 16.8193 4.65804C17.4226 6.18644 17.0677 7.38735 16.9258 7.64209C17.6355 8.4063 18.0613 9.42528 18.0613 10.6262C18.0613 14.9202 15.471 15.9028 13.0581 16.1575C13.4484 16.5215 13.8032 17.2492 13.8032 18.2682C13.8032 19.7966 13.7677 20.9975 13.7677 21.3614C13.7677 21.6526 13.9807 21.9801 14.5128 21.8709C18.8419 20.3788 22 16.194 22 11.2084C21.9645 5.02195 17.0323 0 11 0Z" fill="black"/>
</svg>
