<svg width="32" height="32" viewBox="0 0 32 32" fill="none" xmlns="http://www.w3.org/2000/svg">
<mask id="path-1-outside-1_283_2494" maskUnits="userSpaceOnUse" x="0.0826416" y="1.25" width="32" height="30" fill="black">
<rect fill="white" x="0.0826416" y="1.25" width="32" height="30"/>
<path fill-rule="evenodd" clip-rule="evenodd" d="M10.4502 7.28033C10.5687 7.24083 10.6733 7.16791 10.7514 7.07035L11.8753 5.66537C12.0854 5.40283 12.4034 5.25 12.7396 5.25C13.5226 5.25 14.058 6.04081 13.7672 6.76781C13.7466 6.81919 13.7845 6.87508 13.8398 6.87508H14.4599C14.6112 6.87508 14.7543 6.80631 14.8488 6.68817L15.667 5.66537C15.877 5.40283 16.195 5.25 16.5312 5.25C17.3142 5.25 17.8496 6.04081 17.5589 6.76781C17.5383 6.81919 17.5761 6.87508 17.6315 6.87508H18.2515C18.4028 6.87508 18.5459 6.80631 18.6404 6.68817L19.4587 5.66537C19.6687 5.40283 19.9867 5.25 20.3229 5.25C21.1059 5.25 21.6413 6.04081 21.3505 6.76781C21.2528 7.01219 21.3712 7.29052 21.6156 7.38828C21.7926 7.45908 21.9948 7.41758 22.1296 7.28278L22.6307 6.78166C23.4769 5.93552 24.8487 5.93552 25.6949 6.78166L26.4609 7.54769C27.307 8.39383 27.307 9.76568 26.4609 10.6118L25.6949 11.3779C25.2539 11.8189 24.8872 12.4714 25.1233 13.0486L27.674 19.2836C27.8338 19.6742 27.916 20.0921 27.916 20.5141V22.0319C27.916 23.0237 27.3249 23.9201 26.4133 24.3107L24.3156 25.2098C21.6877 26.336 18.8584 26.9167 15.9993 26.9167C13.1402 26.9167 10.3109 26.336 7.68301 25.2098L5.58529 24.3107C4.67369 23.9201 4.08264 23.0237 4.08264 22.0319V20.4476C4.08264 20.0689 4.14886 19.693 4.27831 19.337L6.74827 12.5446C6.89761 12.1339 6.68974 11.6868 6.38074 11.3779L5.61471 10.6118C4.76857 9.76568 4.76857 8.39382 5.61471 7.54769L6.38074 6.78166C7.22688 5.93552 8.59873 5.93552 9.44487 6.78166L9.78698 7.12376C9.96056 7.29735 10.2173 7.35796 10.4502 7.28033Z"/>
</mask>
<path fill-rule="evenodd" clip-rule="evenodd" d="M10.4502 7.28033C10.5687 7.24083 10.6733 7.16791 10.7514 7.07035L11.8753 5.66537C12.0854 5.40283 12.4034 5.25 12.7396 5.25C13.5226 5.25 14.058 6.04081 13.7672 6.76781C13.7466 6.81919 13.7845 6.87508 13.8398 6.87508H14.4599C14.6112 6.87508 14.7543 6.80631 14.8488 6.68817L15.667 5.66537C15.877 5.40283 16.195 5.25 16.5312 5.25C17.3142 5.25 17.8496 6.04081 17.5589 6.76781C17.5383 6.81919 17.5761 6.87508 17.6315 6.87508H18.2515C18.4028 6.87508 18.5459 6.80631 18.6404 6.68817L19.4587 5.66537C19.6687 5.40283 19.9867 5.25 20.3229 5.25C21.1059 5.25 21.6413 6.04081 21.3505 6.76781C21.2528 7.01219 21.3712 7.29052 21.6156 7.38828C21.7926 7.45908 21.9948 7.41758 22.1296 7.28278L22.6307 6.78166C23.4769 5.93552 24.8487 5.93552 25.6949 6.78166L26.4609 7.54769C27.307 8.39383 27.307 9.76568 26.4609 10.6118L25.6949 11.3779C25.2539 11.8189 24.8872 12.4714 25.1233 13.0486L27.674 19.2836C27.8338 19.6742 27.916 20.0921 27.916 20.5141V22.0319C27.916 23.0237 27.3249 23.9201 26.4133 24.3107L24.3156 25.2098C21.6877 26.336 18.8584 26.9167 15.9993 26.9167C13.1402 26.9167 10.3109 26.336 7.68301 25.2098L5.58529 24.3107C4.67369 23.9201 4.08264 23.0237 4.08264 22.0319V20.4476C4.08264 20.0689 4.14886 19.693 4.27831 19.337L6.74827 12.5446C6.89761 12.1339 6.68974 11.6868 6.38074 11.3779L5.61471 10.6118C4.76857 9.76568 4.76857 8.39382 5.61471 7.54769L6.38074 6.78166C7.22688 5.93552 8.59873 5.93552 9.44487 6.78166L9.78698 7.12376C9.96056 7.29735 10.2173 7.35796 10.4502 7.28033Z" fill="white"/>
<path d="M11.8753 5.66537L8.75187 3.16659L8.75187 3.16659L11.8753 5.66537ZM15.667 5.66537L18.7905 8.16416L18.7905 8.16415L15.667 5.66537ZM19.4587 5.66537L22.5822 8.16416L22.5822 8.16415L19.4587 5.66537ZM22.6307 6.78166L25.4592 9.61008V9.61008L22.6307 6.78166ZM25.6949 6.78166L22.8664 9.61008L25.6949 6.78166ZM26.4609 7.54769L29.2893 4.71926V4.71926L26.4609 7.54769ZM27.674 19.2836L31.3762 17.7691L31.3762 17.7691L27.674 19.2836ZM26.4133 24.3107L24.8377 20.6342L24.8377 20.6342L26.4133 24.3107ZM24.3156 25.2098L22.7399 21.5332L24.3156 25.2098ZM7.68301 25.2098L9.25869 21.5332H9.25869L7.68301 25.2098ZM5.58529 24.3107L4.00961 27.9873H4.00961L5.58529 24.3107ZM4.27831 19.337L8.03749 20.704L8.03749 20.704L4.27831 19.337ZM5.61471 10.6118L2.78628 13.4402L2.78628 13.4402L5.61471 10.6118ZM5.61471 7.54769L8.44313 10.3761L8.44313 10.3761L5.61471 7.54769ZM6.38074 6.78166L3.55231 3.95323L3.55231 3.95323L6.38074 6.78166ZM9.44487 6.78166L6.61644 9.61008L6.61644 9.61008L9.44487 6.78166ZM9.78698 7.12376L6.95855 9.95219L9.78698 7.12376ZM25.1233 13.0486L21.4211 14.5631L25.1233 13.0486ZM18.6404 6.68817L15.517 4.18939L18.6404 6.68817ZM14.8488 6.68817L11.7253 4.18939L14.8488 6.68817ZM22.1296 7.28278L24.958 10.1112L22.1296 7.28278ZM8.75187 3.16659L7.62789 4.57157L13.8748 9.56913L14.9988 8.16415L8.75187 3.16659ZM12.7396 1.25C11.1882 1.25 9.72099 1.95519 8.75187 3.16659L14.9988 8.16416C14.4498 8.85047 13.6185 9.25 12.7396 9.25V1.25ZM17.4811 8.25337C18.8229 4.89892 16.3524 1.25 12.7396 1.25V9.25C10.6927 9.25 9.29309 7.18271 10.0533 5.28224L17.4811 8.25337ZM14.4599 2.87508H13.8398V10.8751H14.4599V2.87508ZM12.5435 3.16659L11.7253 4.18939L17.9722 9.18695L18.7905 8.16416L12.5435 3.16659ZM16.5312 1.25C14.9799 1.25 13.5127 1.95519 12.5435 3.1666L18.7905 8.16415C18.2414 8.85048 17.4102 9.25 16.5312 9.25V1.25ZM21.2728 8.25337C22.6145 4.89892 20.1441 1.25 16.5312 1.25V9.25C14.4844 9.25 13.0848 7.1827 13.8449 5.28225L21.2728 8.25337ZM18.2515 2.87508H17.6315V10.8751H18.2515V2.87508ZM16.3352 3.16659L15.517 4.18939L21.7639 9.18695L22.5822 8.16416L16.3352 3.16659ZM20.3229 1.25C18.7716 1.25 17.3043 1.95519 16.3352 3.1666L22.5822 8.16415C22.0331 8.85048 21.2018 9.25 20.3229 9.25V1.25ZM25.0644 8.25337C26.4062 4.89892 23.9358 1.25 20.3229 1.25V9.25C18.2761 9.25 16.8764 7.18271 17.6366 5.28224L25.0644 8.25337ZM19.8023 3.95323L19.3012 4.45435L24.958 10.1112L25.4592 9.61008L19.8023 3.95323ZM28.5233 3.95323C26.1151 1.545 22.2105 1.54499 19.8023 3.95323L25.4592 9.61008C24.7432 10.326 23.5824 10.326 22.8664 9.61008L28.5233 3.95323ZM29.2893 4.71926L28.5233 3.95323L22.8664 9.61008L23.6325 10.3761L29.2893 4.71926ZM29.2893 13.4402C31.6976 11.032 31.6976 7.1275 29.2893 4.71926L23.6325 10.3761C22.9165 9.66015 22.9165 8.49935 23.6325 7.78339L29.2893 13.4402ZM28.5233 14.2063L29.2893 13.4402L23.6325 7.78339L22.8664 8.54942L28.5233 14.2063ZM31.3762 17.7691L28.8255 11.5341L21.4211 14.5631L23.9718 20.7981L31.3762 17.7691ZM31.916 20.5141C31.916 19.5728 31.7326 18.6404 31.3762 17.7691L23.9718 20.7981C23.9349 20.708 23.916 20.6115 23.916 20.5141H31.916ZM31.916 22.0319V20.5141H23.916V22.0319H31.916ZM27.989 27.9873C30.3713 26.9663 31.916 24.6238 31.916 22.0319H23.916C23.916 21.4236 24.2785 20.8738 24.8377 20.6342L27.989 27.9873ZM25.8913 28.8863L27.989 27.9873L24.8377 20.6342L22.7399 21.5332L25.8913 28.8863ZM15.9993 30.9167C19.4001 30.9167 22.7655 30.226 25.8913 28.8863L22.7399 21.5332C20.6099 22.446 18.3167 22.9167 15.9993 22.9167V30.9167ZM6.10734 28.8863C9.23316 30.226 12.5985 30.9167 15.9993 30.9167V22.9167C13.6819 22.9167 11.3887 22.446 9.25869 21.5332L6.10734 28.8863ZM4.00961 27.9873L6.10734 28.8863L9.25869 21.5332L7.16096 20.6342L4.00961 27.9873ZM0.0826416 22.0319C0.0826416 24.6238 1.62728 26.9663 4.00961 27.9873L7.16096 20.6342C7.72011 20.8738 8.08264 21.4236 8.08264 22.0319H0.0826416ZM0.0826416 20.4476V22.0319H8.08264V20.4476H0.0826416ZM0.51914 17.97C0.230364 18.7641 0.0826416 19.6026 0.0826416 20.4476H8.08264C8.08264 20.5351 8.06736 20.6218 8.03749 20.704L0.51914 17.97ZM2.9891 11.1776L0.519139 17.97L8.03749 20.704L10.5074 13.9116L2.9891 11.1776ZM2.78628 13.4402L3.55231 14.2063L9.20917 8.54942L8.44313 7.78339L2.78628 13.4402ZM2.78628 4.71926C0.378047 7.12749 0.378044 11.032 2.78628 13.4402L8.44313 7.78339C9.1591 8.49935 9.15909 9.66016 8.44313 10.3761L2.78628 4.71926ZM3.55231 3.95323L2.78628 4.71926L8.44313 10.3761L9.20917 9.61008L3.55231 3.95323ZM12.2733 3.95323C9.86506 1.545 5.96055 1.54499 3.55231 3.95323L9.20917 9.61008C8.4932 10.326 7.3324 10.326 6.61644 9.61008L12.2733 3.95323ZM12.6154 4.29534L12.2733 3.95323L6.61644 9.61008L6.95855 9.95219L12.6154 4.29534ZM6.95855 9.95219C8.20347 11.1971 10.0449 11.6318 11.7151 11.0751L9.18531 3.4856C10.3898 3.08412 11.7177 3.39759 12.6154 4.29534L6.95855 9.95219ZM10.5074 13.9116C11.4294 11.3762 10.0092 9.34946 9.20917 8.54942L3.55231 14.2063C3.36683 14.0208 3.13044 13.7201 2.9687 13.2665C2.79753 12.7864 2.68137 12.0239 2.9891 11.1776L10.5074 13.9116ZM17.6366 5.28225C16.7227 7.5671 17.8239 10.1797 20.1301 11.1022L23.1012 3.67437C24.9186 4.40133 25.7829 6.45728 25.0644 8.25336L17.6366 5.28225ZM22.8664 8.54943C22.3764 9.03942 21.8159 9.74892 21.4462 10.6643C21.068 11.6008 20.7944 13.031 21.4211 14.5631L28.8255 11.5341C29.2161 12.489 29.0078 13.3043 28.8642 13.6599C28.729 13.9945 28.5723 14.1573 28.5233 14.2063L22.8664 8.54943ZM18.2515 10.8751C19.618 10.8751 20.9103 10.254 21.7639 9.18695L15.517 4.18939C16.1815 3.35867 17.1877 2.87508 18.2515 2.87508V10.8751ZM14.4599 10.8751C15.8263 10.8751 17.1186 10.254 17.9722 9.18695L11.7253 4.18939C12.3899 3.35867 13.396 2.87508 14.4599 2.87508V10.8751ZM13.8449 5.28226C12.7734 7.96108 14.7463 10.8751 17.6315 10.8751V2.87508C20.406 2.87508 22.3032 5.6773 21.2728 8.25336L13.8449 5.28226ZM20.1301 11.1022C21.7927 11.7673 23.6918 11.3775 24.958 10.1112L19.3012 4.45435C20.2978 3.4577 21.7925 3.15091 23.1012 3.67437L20.1301 11.1022ZM10.0533 5.28226C8.98175 7.96108 10.9546 10.8751 13.8398 10.8751V2.87508C16.6143 2.87508 18.5115 5.6773 17.4811 8.25336L10.0533 5.28226ZM7.62789 4.57157C8.03151 4.06704 8.57235 3.68992 9.18531 3.4856L11.7151 11.0751C12.5651 10.7917 13.3151 10.2688 13.8748 9.56913L7.62789 4.57157Z" fill="white" mask="url(#path-1-outside-1_283_2494)"/>
<mask id="path-3-outside-2_283_2494" maskUnits="userSpaceOnUse" x="2.08264" y="3.25" width="28" height="26" fill="black">
<rect fill="white" x="2.08264" y="3.25" width="28" height="26"/>
<path fill-rule="evenodd" clip-rule="evenodd" d="M10.4502 7.28033C10.5687 7.24083 10.6733 7.16791 10.7514 7.07035L11.8753 5.66537C12.0854 5.40283 12.4034 5.25 12.7396 5.25C13.5226 5.25 14.058 6.04081 13.7672 6.76781C13.7466 6.81919 13.7845 6.87508 13.8398 6.87508H14.4599C14.6112 6.87508 14.7543 6.80631 14.8488 6.68817L15.667 5.66537C15.877 5.40283 16.195 5.25 16.5312 5.25C17.3142 5.25 17.8496 6.04081 17.5589 6.76781C17.5383 6.81919 17.5761 6.87508 17.6315 6.87508H18.2515C18.4028 6.87508 18.5459 6.80631 18.6404 6.68817L19.4587 5.66537C19.6687 5.40283 19.9867 5.25 20.3229 5.25C21.1059 5.25 21.6413 6.04081 21.3505 6.76781C21.2528 7.01219 21.3712 7.29052 21.6156 7.38828C21.7926 7.45908 21.9948 7.41758 22.1296 7.28278L22.6307 6.78166C23.4769 5.93552 24.8487 5.93552 25.6949 6.78166L26.4609 7.54769C27.307 8.39383 27.307 9.76568 26.4609 10.6118L25.6949 11.3779C25.2539 11.8189 24.8872 12.4714 25.1233 13.0486L27.674 19.2836C27.8338 19.6742 27.916 20.0921 27.916 20.5141V22.0319C27.916 23.0237 27.3249 23.9201 26.4133 24.3107L24.3156 25.2098C21.6877 26.336 18.8584 26.9167 15.9993 26.9167C13.1402 26.9167 10.3109 26.336 7.68301 25.2098L5.58529 24.3107C4.67369 23.9201 4.08264 23.0237 4.08264 22.0319V20.4476C4.08264 20.0689 4.14886 19.693 4.27831 19.337L6.74827 12.5446C6.89761 12.1339 6.68974 11.6868 6.38074 11.3779L5.61471 10.6118C4.76857 9.76568 4.76857 8.39382 5.61471 7.54769L6.38074 6.78166C7.22688 5.93552 8.59873 5.93552 9.44487 6.78166L9.78698 7.12376C9.96056 7.29735 10.2173 7.35796 10.4502 7.28033Z"/>
</mask>
<path fill-rule="evenodd" clip-rule="evenodd" d="M10.4502 7.28033C10.5687 7.24083 10.6733 7.16791 10.7514 7.07035L11.8753 5.66537C12.0854 5.40283 12.4034 5.25 12.7396 5.25C13.5226 5.25 14.058 6.04081 13.7672 6.76781C13.7466 6.81919 13.7845 6.87508 13.8398 6.87508H14.4599C14.6112 6.87508 14.7543 6.80631 14.8488 6.68817L15.667 5.66537C15.877 5.40283 16.195 5.25 16.5312 5.25C17.3142 5.25 17.8496 6.04081 17.5589 6.76781C17.5383 6.81919 17.5761 6.87508 17.6315 6.87508H18.2515C18.4028 6.87508 18.5459 6.80631 18.6404 6.68817L19.4587 5.66537C19.6687 5.40283 19.9867 5.25 20.3229 5.25C21.1059 5.25 21.6413 6.04081 21.3505 6.76781C21.2528 7.01219 21.3712 7.29052 21.6156 7.38828C21.7926 7.45908 21.9948 7.41758 22.1296 7.28278L22.6307 6.78166C23.4769 5.93552 24.8487 5.93552 25.6949 6.78166L26.4609 7.54769C27.307 8.39383 27.307 9.76568 26.4609 10.6118L25.6949 11.3779C25.2539 11.8189 24.8872 12.4714 25.1233 13.0486L27.674 19.2836C27.8338 19.6742 27.916 20.0921 27.916 20.5141V22.0319C27.916 23.0237 27.3249 23.9201 26.4133 24.3107L24.3156 25.2098C21.6877 26.336 18.8584 26.9167 15.9993 26.9167C13.1402 26.9167 10.3109 26.336 7.68301 25.2098L5.58529 24.3107C4.67369 23.9201 4.08264 23.0237 4.08264 22.0319V20.4476C4.08264 20.0689 4.14886 19.693 4.27831 19.337L6.74827 12.5446C6.89761 12.1339 6.68974 11.6868 6.38074 11.3779L5.61471 10.6118C4.76857 9.76568 4.76857 8.39382 5.61471 7.54769L6.38074 6.78166C7.22688 5.93552 8.59873 5.93552 9.44487 6.78166L9.78698 7.12376C9.96056 7.29735 10.2173 7.35796 10.4502 7.28033Z" fill="white"/>
<path d="M11.8753 5.66537L10.3136 4.41598L10.3136 4.41598L11.8753 5.66537ZM15.667 5.66537L17.2287 6.91476L17.2287 6.91476L15.667 5.66537ZM19.4587 5.66537L21.0204 6.91476L21.0204 6.91476L19.4587 5.66537ZM22.6307 6.78166L24.045 8.19587V8.19587L22.6307 6.78166ZM25.6949 6.78166L24.2807 8.19587L25.6949 6.78166ZM26.4609 7.54769L27.8751 6.13348V6.13348L26.4609 7.54769ZM27.674 19.2836L29.5251 18.5263L29.5251 18.5263L27.674 19.2836ZM26.4133 24.3107L25.6255 22.4724V22.4724L26.4133 24.3107ZM24.3156 25.2098L23.5278 23.3715H23.5278L24.3156 25.2098ZM7.68301 25.2098L8.47085 23.3715L8.47085 23.3715L7.68301 25.2098ZM5.58529 24.3107L4.79745 26.149L4.79745 26.149L5.58529 24.3107ZM4.27831 19.337L6.1579 20.0205L6.1579 20.0205L4.27831 19.337ZM5.61471 10.6118L4.20049 12.026H4.20049L5.61471 10.6118ZM5.61471 7.54769L7.02892 8.9619L7.02892 8.9619L5.61471 7.54769ZM6.38074 6.78166L4.96653 5.36744L4.96653 5.36744L6.38074 6.78166ZM9.44487 6.78166L8.03065 8.19587L8.03065 8.19587L9.44487 6.78166ZM9.78698 7.12376L8.37276 8.53798L9.78698 7.12376ZM25.1233 13.0486L23.2722 13.8059L25.1233 13.0486ZM18.6404 6.68817L17.0787 5.43878L18.6404 6.68817ZM14.8488 6.68817L13.287 5.43878L14.8488 6.68817ZM22.1296 7.28278L23.5438 8.69699L22.1296 7.28278ZM10.3136 4.41598L9.18962 5.82096L12.3131 8.31974L13.4371 6.91476L10.3136 4.41598ZM12.7396 3.25C11.7958 3.25 10.9032 3.67901 10.3136 4.41598L13.4371 6.91477C13.2676 7.12665 13.0109 7.25 12.7396 7.25V3.25ZM15.6241 7.51059C16.4404 5.46986 14.9375 3.25 12.7396 3.25V7.25C12.1076 7.25 11.6755 6.61176 11.9102 6.02502L15.6241 7.51059ZM14.4599 4.87508H13.8398V8.87508H14.4599V4.87508ZM14.1053 4.41598L13.287 5.43878L16.4105 7.93756L17.2287 6.91476L14.1053 4.41598ZM16.5312 3.25C15.5875 3.25 14.6948 3.67901 14.1053 4.41599L17.2287 6.91476C17.0592 7.12665 16.8026 7.25 16.5312 7.25V3.25ZM19.4158 7.51059C20.2321 5.46987 18.7292 3.25 16.5312 3.25V7.25C15.8993 7.25 15.4672 6.61176 15.7019 6.02503L19.4158 7.51059ZM18.2515 4.87508H17.6315V8.87508H18.2515V4.87508ZM17.8969 4.41598L17.0787 5.43878L20.2022 7.93756L21.0204 6.91476L17.8969 4.41598ZM20.3229 3.25C19.3791 3.25 18.4865 3.67901 17.8969 4.41599L21.0204 6.91476C20.8509 7.12665 20.5943 7.25 20.3229 7.25V3.25ZM23.2075 7.51059C24.0238 5.46986 22.5208 3.25 20.3229 3.25V7.25C19.691 7.25 19.2589 6.61176 19.4936 6.02502L23.2075 7.51059ZM21.2165 5.36744L20.7154 5.86856L23.5438 8.69699L24.045 8.19587L21.2165 5.36744ZM27.1091 5.36744C25.4819 3.74026 22.8437 3.74026 21.2165 5.36744L24.045 8.19587C24.11 8.13078 24.2156 8.13078 24.2807 8.19587L27.1091 5.36744ZM27.8751 6.13348L27.1091 5.36744L24.2807 8.19587L25.0467 8.9619L27.8751 6.13348ZM27.8751 12.026C29.5023 10.3988 29.5023 7.76066 27.8751 6.13348L25.0467 8.9619C25.1118 9.02699 25.1118 9.13251 25.0467 9.1976L27.8751 12.026ZM27.1091 12.7921L27.8751 12.026L25.0467 9.1976L24.2807 9.96364L27.1091 12.7921ZM29.5251 18.5263L26.9744 12.2913L23.2722 13.8059L25.8229 20.0409L29.5251 18.5263ZM29.916 20.5141C29.916 19.8324 29.7832 19.1573 29.5251 18.5263L25.8229 20.0409C25.8844 20.1911 25.916 20.3518 25.916 20.5141H29.916ZM29.916 22.0319V20.5141H25.916V22.0319H29.916ZM27.2012 26.149C28.8481 25.4432 29.916 23.8238 29.916 22.0319H25.916C25.916 22.2236 25.8017 22.3969 25.6255 22.4724L27.2012 26.149ZM25.1034 27.0481L27.2012 26.149L25.6255 22.4724L23.5278 23.3715L25.1034 27.0481ZM15.9993 28.9167C19.1292 28.9167 22.2266 28.281 25.1034 27.0481L23.5278 23.3715C21.1488 24.391 18.5875 24.9167 15.9993 24.9167V28.9167ZM6.89517 27.0481C9.77204 28.281 12.8694 28.9167 15.9993 28.9167V24.9167C13.4111 24.9167 10.8498 24.391 8.47085 23.3715L6.89517 27.0481ZM4.79745 26.149L6.89517 27.0481L8.47085 23.3715L6.37312 22.4724L4.79745 26.149ZM2.08264 22.0319C2.08264 23.8238 3.15049 25.4432 4.79745 26.149L6.37312 22.4724C6.1969 22.3969 6.08264 22.2236 6.08264 22.0319H2.08264ZM2.08264 20.4476V22.0319H6.08264V20.4476H2.08264ZM2.39873 18.6535C2.18961 19.2286 2.08264 19.8357 2.08264 20.4476H6.08264C6.08264 20.302 6.10811 20.1574 6.1579 20.0205L2.39873 18.6535ZM4.86868 11.8611L2.39873 18.6535L6.1579 20.0205L8.62786 13.2281L4.86868 11.8611ZM4.20049 12.026L4.96653 12.7921L7.79495 9.96364L7.02892 9.1976L4.20049 12.026ZM4.20049 6.13347C2.57331 7.76066 2.57331 10.3988 4.20049 12.026L7.02892 9.1976C6.96383 9.13252 6.96383 9.02699 7.02892 8.9619L4.20049 6.13347ZM4.96653 5.36744L4.20049 6.13348L7.02892 8.9619L7.79495 8.19587L4.96653 5.36744ZM10.8591 5.36744C9.2319 3.74026 6.59371 3.74026 4.96653 5.36744L7.79495 8.19587C7.86004 8.13078 7.96557 8.13078 8.03065 8.19587L10.8591 5.36744ZM11.2012 5.70955L10.8591 5.36744L8.03065 8.19587L8.37276 8.53798L11.2012 5.70955ZM8.37276 8.53798C9.08202 9.24723 10.1311 9.49489 11.0827 9.1777L9.81776 5.38297C10.3035 5.22104 10.8391 5.34747 11.2012 5.70955L8.37276 8.53798ZM8.62786 13.2281C9.16351 11.755 8.34947 10.5182 7.79495 9.96364L4.96653 12.7921C4.95104 12.7766 4.89745 12.7207 4.85254 12.5948C4.80292 12.4556 4.75215 12.1816 4.86868 11.8611L8.62786 13.2281ZM19.4936 6.02503C18.9877 7.28965 19.5976 8.73512 20.8728 9.24523L22.3584 5.53132C23.1449 5.84593 23.5178 6.73473 23.2075 7.51058L19.4936 6.02503ZM24.2806 9.96364C23.9254 10.3189 23.5442 10.8103 23.3007 11.4132C23.053 12.0267 22.8998 12.8955 23.2722 13.8059L26.9744 12.2913C27.1107 12.6245 27.0228 12.8785 27.0097 12.911C27.002 12.9299 27.0028 12.9221 27.0239 12.892C27.0442 12.863 27.0734 12.8278 27.1091 12.7921L24.2806 9.96364ZM18.2515 8.87508C19.0104 8.87508 19.7281 8.53013 20.2022 7.93756L17.0787 5.43878C17.3637 5.08249 17.7953 4.87508 18.2515 4.87508V8.87508ZM14.4599 8.87508C15.2187 8.87508 15.9365 8.53013 16.4105 7.93756L13.287 5.43878C13.5721 5.08249 14.0036 4.87508 14.4599 4.87508V8.87508ZM15.7019 6.02503C15.1559 7.39014 16.1612 8.87508 17.6315 8.87508V4.87508C18.9911 4.87508 19.9207 6.24824 19.4158 7.51058L15.7019 6.02503ZM20.8728 9.24523C21.7927 9.61317 22.8433 9.39752 23.5438 8.69699L20.7154 5.86856C21.1463 5.43764 21.7926 5.30499 22.3584 5.53132L20.8728 9.24523ZM11.9102 6.02503C11.3642 7.39014 12.3695 8.87508 13.8398 8.87508V4.87508C15.1994 4.87508 16.1291 6.24824 15.6241 7.51058L11.9102 6.02503ZM9.18962 5.82096C9.35241 5.61747 9.57054 5.46537 9.81776 5.38297L11.0827 9.1777C11.5669 9.01628 11.9942 8.71834 12.3131 8.31974L9.18962 5.82096Z" fill="#10100F" mask="url(#path-3-outside-2_283_2494)"/>
<path d="M12.4286 22.5L7.49548 22.8837C6.65143 22.9493 6 23.6534 6 24.5C6 25.8807 7.11929 27 8.5 27H23.9223C25.0698 27 26 26.0698 26 24.9223C26 23.8374 25.1652 22.9351 24.0834 22.8509L19.5714 22.5H12.4286Z" fill="url(#paint0_linear_283_2494)"/>
<path d="M12.2077 20.4163C10.7733 20.4537 9.83001 18.9322 10.5013 17.6641L12.3188 14.2312C13.0455 12.8585 14.4714 12 16.0246 12C17.5517 12 18.9581 12.8303 19.6959 14.1674L21.5241 17.4807C22.252 18.7999 21.2977 20.4163 19.791 20.4163L16 20L12.2077 20.4163Z" fill="url(#paint1_linear_283_2494)"/>
<rect x="15" y="16" width="2" height="3" fill="url(#paint2_linear_283_2494)"/>
<path d="M17.878 13.9163C18.753 13.9163 19.1733 14.9899 18.531 15.584L17.734 16.3211C17.2621 16.7576 16.643 17 16.0001 17C15.3572 17 14.7378 16.7574 14.2659 16.3208L13.4691 15.5835C12.8271 14.9895 13.2474 13.9163 14.1221 13.9163H16.0007H17.878Z" fill="#10100F"/>
<path d="M19 19C18.823 19.2869 18.4331 19.5404 17.8907 19.7212C17.3483 19.902 16.6837 20 16 20C15.3163 20 14.6517 19.902 14.1093 19.7212C13.5669 19.5404 13.177 19.2869 13 19" stroke="#10100F" stroke-width="2" stroke-linecap="round" stroke-linejoin="round"/>
<circle cx="10.5" cy="12.5" r="2.5" fill="white"/>
<circle cx="10.5" cy="12.5" r="1.5" fill="#10100F"/>
<circle cx="21.5" cy="12.5" r="2.5" fill="white"/>
<circle cx="21.5" cy="12.5" r="1.5" fill="#10100F"/>
<path d="M9 8C9.55228 8.55228 9.55228 9.44772 9 10C8.44772 10.5523 7.55228 10.5523 7 10C6.44772 9.44772 6.44772 8.55228 7 8C7.55228 7.44772 8.44772 7.44772 9 8Z" fill="#CECECE"/>
<path d="M25 8C25.5523 8.55228 25.5523 9.44772 25 10C24.4477 10.5523 23.5523 10.5523 23 10C22.4477 9.44772 22.4477 8.55228 23 8C23.5523 7.44772 24.4477 7.44772 25 8Z" fill="#CECECE"/>
<mask id="path-16-outside-3_283_2494" maskUnits="userSpaceOnUse" x="2.08276" y="3.25" width="28" height="26" fill="black">
<rect fill="white" x="2.08276" y="3.25" width="28" height="26"/>
<path fill-rule="evenodd" clip-rule="evenodd" d="M10.4503 7.28033C10.5689 7.24083 10.6734 7.16791 10.7515 7.07035L11.8755 5.66537C12.0855 5.40283 12.4035 5.25 12.7397 5.25C13.5227 5.25 14.0581 6.04081 13.7673 6.76781C13.7468 6.81919 13.7846 6.87508 13.8399 6.87508H14.46C14.6113 6.87508 14.7544 6.80631 14.8489 6.68817L15.6671 5.66537C15.8772 5.40283 16.1952 5.25 16.5314 5.25C17.3144 5.25 17.8498 6.04081 17.559 6.76781C17.5384 6.81919 17.5763 6.87508 17.6316 6.87508H18.2517C18.403 6.87508 18.5461 6.80631 18.6406 6.68817L19.4588 5.66537C19.6688 5.40283 19.9868 5.25 20.323 5.25C21.106 5.25 21.6414 6.04081 21.3506 6.76781C21.2529 7.01219 21.3714 7.29052 21.6157 7.38828C21.7928 7.45908 21.9949 7.41758 22.1297 7.28278L22.6309 6.78166C23.477 5.93552 24.8489 5.93552 25.695 6.78166L26.461 7.54769C27.3072 8.39383 27.3072 9.76568 26.461 10.6118L25.695 11.3779C25.254 11.8189 24.8873 12.4714 25.1235 13.0486L27.6741 19.2836C27.8339 19.6742 27.9161 20.0921 27.9161 20.5141V22.0319C27.9161 23.0237 27.325 23.9201 26.4135 24.3107L24.3157 25.2098C21.6878 26.336 18.8585 26.9167 15.9994 26.9167C13.1403 26.9167 10.311 26.336 7.68313 25.2098L5.58541 24.3107C4.67382 23.9201 4.08276 23.0237 4.08276 22.0319V20.4476C4.08276 20.0689 4.14898 19.693 4.27844 19.337L6.74839 12.5446C6.89773 12.1339 6.68986 11.6868 6.38086 11.3779L5.61483 10.6118C4.76869 9.76568 4.76869 8.39382 5.61483 7.54769L6.38086 6.78166C7.227 5.93552 8.59885 5.93552 9.44499 6.78166L9.7871 7.12376C9.96069 7.29735 10.2174 7.35796 10.4503 7.28033Z"/>
</mask>
<path d="M11.8755 5.66537L10.3137 4.41598L10.3137 4.41598L11.8755 5.66537ZM15.6671 5.66537L17.2289 6.91476L17.2289 6.91476L15.6671 5.66537ZM19.4588 5.66537L21.0205 6.91476L21.0205 6.91476L19.4588 5.66537ZM22.6309 6.78166L24.0451 8.19587V8.19587L22.6309 6.78166ZM25.695 6.78166L24.2808 8.19587L25.695 6.78166ZM26.461 7.54769L27.8752 6.13348V6.13348L26.461 7.54769ZM27.6741 19.2836L29.5252 18.5263L29.5252 18.5263L27.6741 19.2836ZM26.4135 24.3107L25.6256 22.4724V22.4724L26.4135 24.3107ZM24.3157 25.2098L23.5279 23.3715H23.5279L24.3157 25.2098ZM7.68313 25.2098L8.47097 23.3715L8.47097 23.3715L7.68313 25.2098ZM5.58541 24.3107L4.79757 26.149L4.79757 26.149L5.58541 24.3107ZM4.27844 19.337L6.15802 20.0205L6.15802 20.0205L4.27844 19.337ZM5.61483 10.6118L4.20061 12.026H4.20061L5.61483 10.6118ZM5.61483 7.54769L7.02904 8.9619L7.02904 8.9619L5.61483 7.54769ZM6.38086 6.78166L4.96665 5.36744L4.96665 5.36744L6.38086 6.78166ZM9.44499 6.78166L8.03078 8.19587L8.03078 8.19587L9.44499 6.78166ZM9.7871 7.12376L8.37289 8.53798L9.7871 7.12376ZM25.1235 13.0486L23.2724 13.8059L25.1235 13.0486ZM18.6406 6.68817L17.0788 5.43878L18.6406 6.68817ZM14.8489 6.68817L13.2872 5.43878L14.8489 6.68817ZM22.1297 7.28278L23.544 8.69699L22.1297 7.28278ZM10.3137 4.41598L9.18974 5.82096L12.3132 8.31974L13.4372 6.91476L10.3137 4.41598ZM12.7397 3.25C11.7959 3.25 10.9033 3.67901 10.3137 4.41598L13.4372 6.91477C13.2677 7.12665 13.0111 7.25 12.7397 7.25V3.25ZM15.6243 7.51059C16.4406 5.46986 14.9376 3.25 12.7397 3.25V7.25C12.1078 7.25 11.6757 6.61176 11.9104 6.02502L15.6243 7.51059ZM14.46 4.87508H13.8399V8.87508H14.46V4.87508ZM14.1054 4.41598L13.2872 5.43878L16.4106 7.93756L17.2289 6.91476L14.1054 4.41598ZM16.5314 3.25C15.5876 3.25 14.695 3.67901 14.1054 4.41599L17.2289 6.91476C17.0594 7.12665 16.8027 7.25 16.5314 7.25V3.25ZM19.4159 7.51059C20.2322 5.46987 18.7293 3.25 16.5314 3.25V7.25C15.8994 7.25 15.4673 6.61176 15.702 6.02503L19.4159 7.51059ZM18.2517 4.87508H17.6316V8.87508H18.2517V4.87508ZM17.8971 4.41598L17.0788 5.43878L20.2023 7.93756L21.0205 6.91476L17.8971 4.41598ZM20.323 3.25C19.3793 3.25 18.4866 3.67901 17.8971 4.41599L21.0205 6.91476C20.851 7.12665 20.5944 7.25 20.323 7.25V3.25ZM23.2076 7.51059C24.0239 5.46986 22.521 3.25 20.323 3.25V7.25C19.6911 7.25 19.259 6.61176 19.4937 6.02502L23.2076 7.51059ZM21.2166 5.36744L20.7155 5.86856L23.544 8.69699L24.0451 8.19587L21.2166 5.36744ZM27.1092 5.36744C25.482 3.74026 22.8438 3.74026 21.2166 5.36744L24.0451 8.19587C24.1102 8.13078 24.2157 8.13078 24.2808 8.19587L27.1092 5.36744ZM27.8752 6.13348L27.1092 5.36744L24.2808 8.19587L25.0468 8.9619L27.8752 6.13348ZM27.8752 12.026C29.5024 10.3988 29.5024 7.76066 27.8752 6.13348L25.0468 8.9619C25.1119 9.02699 25.1119 9.13251 25.0468 9.1976L27.8752 12.026ZM27.1092 12.7921L27.8752 12.026L25.0468 9.1976L24.2808 9.96364L27.1092 12.7921ZM29.5252 18.5263L26.9745 12.2913L23.2724 13.8059L25.823 20.0409L29.5252 18.5263ZM29.9161 20.5141C29.9161 19.8324 29.7833 19.1573 29.5252 18.5263L25.823 20.0409C25.8845 20.1911 25.9161 20.3518 25.9161 20.5141H29.9161ZM29.9161 22.0319V20.5141H25.9161V22.0319H29.9161ZM27.2013 26.149C28.8483 25.4432 29.9161 23.8238 29.9161 22.0319H25.9161C25.9161 22.2236 25.8018 22.3969 25.6256 22.4724L27.2013 26.149ZM25.1036 27.0481L27.2013 26.149L25.6256 22.4724L23.5279 23.3715L25.1036 27.0481ZM15.9994 28.9167C19.1294 28.9167 22.2267 28.281 25.1036 27.0481L23.5279 23.3715C21.1489 24.391 18.5877 24.9167 15.9994 24.9167V28.9167ZM6.8953 27.0481C9.77216 28.281 12.8695 28.9167 15.9994 28.9167V24.9167C13.4112 24.9167 10.8499 24.391 8.47097 23.3715L6.8953 27.0481ZM4.79757 26.149L6.8953 27.0481L8.47097 23.3715L6.37325 22.4724L4.79757 26.149ZM2.08276 22.0319C2.08276 23.8238 3.15061 25.4432 4.79757 26.149L6.37325 22.4724C6.19702 22.3969 6.08276 22.2236 6.08276 22.0319H2.08276ZM2.08276 20.4476V22.0319H6.08276V20.4476H2.08276ZM2.39885 18.6535C2.18974 19.2286 2.08276 19.8357 2.08276 20.4476H6.08276C6.08276 20.302 6.10823 20.1574 6.15802 20.0205L2.39885 18.6535ZM4.86881 11.8611L2.39885 18.6535L6.15802 20.0205L8.62798 13.2281L4.86881 11.8611ZM4.20061 12.026L4.96665 12.7921L7.79507 9.96364L7.02904 9.1976L4.20061 12.026ZM4.20061 6.13347C2.57343 7.76066 2.57343 10.3988 4.20061 12.026L7.02904 9.1976C6.96395 9.13252 6.96395 9.02699 7.02904 8.9619L4.20061 6.13347ZM4.96665 5.36744L4.20061 6.13348L7.02904 8.9619L7.79508 8.19587L4.96665 5.36744ZM10.8592 5.36744C9.23202 3.74026 6.59383 3.74026 4.96665 5.36744L7.79507 8.19587C7.86016 8.13078 7.96569 8.13078 8.03078 8.19587L10.8592 5.36744ZM11.2013 5.70955L10.8592 5.36744L8.03078 8.19587L8.37289 8.53798L11.2013 5.70955ZM8.37289 8.53798C9.08214 9.24723 10.1312 9.49489 11.0828 9.1777L9.81788 5.38297C10.3037 5.22104 10.8392 5.34747 11.2013 5.70955L8.37289 8.53798ZM8.62798 13.2281C9.16363 11.755 8.34959 10.5182 7.79507 9.96364L4.96665 12.7921C4.95116 12.7766 4.89757 12.7207 4.85266 12.5948C4.80304 12.4556 4.75228 12.1816 4.86881 11.8611L8.62798 13.2281ZM19.4937 6.02503C18.9878 7.28965 19.5977 8.73512 20.873 9.24523L22.3585 5.53132C23.145 5.84593 23.5179 6.73473 23.2076 7.51058L19.4937 6.02503ZM24.2808 9.96364C23.9255 10.3189 23.5443 10.8103 23.3008 11.4132C23.0531 12.0267 22.8999 12.8955 23.2724 13.8059L26.9745 12.2913C27.1108 12.6245 27.0229 12.8785 27.0098 12.911C27.0022 12.9299 27.0029 12.9221 27.024 12.892C27.0443 12.863 27.0735 12.8278 27.1092 12.7921L24.2808 9.96364ZM18.2517 8.87508C19.0105 8.87508 19.7282 8.53013 20.2023 7.93756L17.0788 5.43878C17.3639 5.08249 17.7954 4.87508 18.2517 4.87508V8.87508ZM14.46 8.87508C15.2189 8.87508 15.9366 8.53013 16.4106 7.93756L13.2872 5.43878C13.5722 5.08249 14.0037 4.87508 14.46 4.87508V8.87508ZM15.702 6.02503C15.156 7.39014 16.1613 8.87508 17.6316 8.87508V4.87508C18.9912 4.87508 19.9209 6.24824 19.4159 7.51058L15.702 6.02503ZM20.873 9.24523C21.7928 9.61317 22.8434 9.39752 23.544 8.69699L20.7155 5.86856C21.1464 5.43764 21.7927 5.30499 22.3585 5.53132L20.873 9.24523ZM11.9104 6.02503C11.3643 7.39014 12.3697 8.87508 13.8399 8.87508V4.87508C15.1995 4.87508 16.1292 6.24824 15.6243 7.51058L11.9104 6.02503ZM9.18974 5.82096C9.35253 5.61747 9.57067 5.46537 9.81788 5.38297L11.0828 9.1777C11.5671 9.01628 11.9943 8.71834 12.3132 8.31974L9.18974 5.82096Z" fill="#10100F" mask="url(#path-16-outside-3_283_2494)"/>
<defs>
<linearGradient id="paint0_linear_283_2494" x1="16.3571" y1="21.5" x2="16.3571" y2="26" gradientUnits="userSpaceOnUse">
<stop stop-color="white"/>
<stop offset="1" stop-color="#D2D2D2"/>
</linearGradient>
<linearGradient id="paint1_linear_283_2494" x1="15.9993" y1="13.5" x2="15.9993" y2="16.5" gradientUnits="userSpaceOnUse">
<stop stop-color="#F5F5F5"/>
<stop offset="1" stop-color="#E6E6E6"/>
</linearGradient>
<linearGradient id="paint2_linear_283_2494" x1="16" y1="16" x2="16" y2="19" gradientUnits="userSpaceOnUse">
<stop stop-color="#2B2B2B"/>
<stop offset="1" stop-color="#10100F"/>
</linearGradient>
</defs>
</svg>
