<svg width="256" height="256" viewBox="0 0 256 256" fill="none" xmlns="http://www.w3.org/2000/svg">
<g clip-path="url(#clip0_483_5454)">
<rect width="256" height="256" fill="#FED48B"/>
<path d="M12.4171 -13.0866C-3.2651 -7.84929 9.89734 10.3646 20.3239 2.91211C30.7505 -4.5404 20.0018 -15.6196 12.4171 -13.0866Z" stroke="#FFE5CC" stroke-width="8" stroke-linecap="round"/>
<path d="M44.2041 -20.5818C50.8439 -16.4681 57.1977 -12.0567 64.0588 -8.30215" stroke="#FFE5CC" stroke-width="8" stroke-linecap="round"/>
<path d="M60.3662 -25.9476C55.3584 -18.9784 51.7605 -11.9793 47.3794 -4.86814" stroke="#FFE5CC" stroke-width="8" stroke-linecap="round"/>
<path d="M-14.6229 35.5699C1.5769 32.2645 -0.715147 54.6194 -13.4711 53.3786C-26.227 52.1378 -22.458 37.1686 -14.6229 35.5699Z" stroke="#FFE5CC" stroke-width="8" stroke-linecap="round"/>
<path d="M18.9029 23.4675C20.1227 34.3562 30.7797 29.7752 33.5836 40.2394" stroke="#FFE5CC" stroke-width="8" stroke-linecap="round"/>
<path d="M75.5175 19.0062C73.2384 11.8667 62.7051 14.9743 65.3211 23.4533C67.937 31.9323 55.619 34.5661 52.6877 23.626" stroke="#FFE5CC" stroke-width="8" stroke-linecap="round"/>
<path d="M108.649 3.5614C104.956 10.4439 101.659 17.4411 97.594 24.1232" stroke="#FFE5CC" stroke-width="8" stroke-linecap="round"/>
<path d="M91.9693 6.99535C99.7907 10.527 106.406 14.7894 113.756 18.7573" stroke="#FFE5CC" stroke-width="8" stroke-linecap="round"/>
<path d="M139.925 -5.84116C156.125 -9.14661 153.833 13.2083 141.077 11.9675C128.321 10.7268 132.09 -4.24247 139.925 -5.84116Z" stroke="#FFE5CC" stroke-width="8" stroke-linecap="round"/>
<path d="M173.451 -17.9435C174.671 -7.05484 185.328 -11.6359 188.132 -1.17166" stroke="#FFE5CC" stroke-width="8" stroke-linecap="round"/>
<path d="M4.24851 93.652C3.0287 82.7633 -7.62837 87.3443 -10.4322 76.8802" stroke="#FFE5CC" stroke-width="8" stroke-linecap="round"/>
<path d="M37.7748 81.5496C21.575 84.855 23.867 62.5001 36.6229 63.7409C49.3789 64.9817 45.6099 79.9509 37.7748 81.5496Z" stroke="#FFE5CC" stroke-width="8" stroke-linecap="round"/>
<path d="M69.0508 72.147C72.7441 65.2646 76.0411 58.2673 80.1057 51.5852" stroke="#FFE5CC" stroke-width="8" stroke-linecap="round"/>
<path d="M85.7304 68.7131C77.909 65.1814 71.2935 60.919 63.9438 56.9511" stroke="#FFE5CC" stroke-width="8" stroke-linecap="round"/>
<path d="M102.182 56.7022C104.461 63.8418 114.995 60.7342 112.379 52.2552C109.763 43.7762 122.081 41.1424 125.012 52.0825" stroke="#FFE5CC" stroke-width="8" stroke-linecap="round"/>
<path d="M158.797 52.2409C157.577 41.3523 146.92 45.9333 144.116 35.4691" stroke="#FFE5CC" stroke-width="8" stroke-linecap="round"/>
<path d="M192.323 40.1386C176.123 43.444 178.415 21.0891 191.171 22.3299C203.927 23.5707 200.158 38.5399 192.323 40.1386Z" stroke="#FFE5CC" stroke-width="8" stroke-linecap="round"/>
<path d="M223.599 30.736C227.292 23.8536 230.589 16.8563 234.654 10.1742" stroke="#FFE5CC" stroke-width="8" stroke-linecap="round"/>
<path d="M240.279 27.3021C232.457 23.7704 225.842 19.508 218.492 15.5401" stroke="#FFE5CC" stroke-width="8" stroke-linecap="round"/>
<path d="M8.38963 109.107C12.7776 119.147 1.25776 120.508 4.06163 130.972" stroke="#FFE5CC" stroke-width="8" stroke-linecap="round"/>
<path d="M43.4757 102.824C27.7935 108.062 40.9559 126.276 51.3825 118.823C61.8091 111.371 51.0604 100.291 43.4757 102.824Z" stroke="#FFE5CC" stroke-width="8" stroke-linecap="round"/>
<path d="M75.2622 95.3293C81.902 99.443 88.2558 103.854 95.1169 107.609" stroke="#FFE5CC" stroke-width="8" stroke-linecap="round"/>
<path d="M91.4243 89.9634C86.4165 96.9327 82.8186 103.932 78.4375 111.043" stroke="#FFE5CC" stroke-width="8" stroke-linecap="round"/>
<path d="M111.678 92.1392C110.082 84.8166 120.758 82.2412 122.732 90.8922C124.706 99.5432 136.69 95.6651 133.759 84.7251" stroke="#FFE5CC" stroke-width="8" stroke-linecap="round"/>
<path d="M162.938 67.6957C167.326 77.7355 155.806 79.0968 158.61 89.5609" stroke="#FFE5CC" stroke-width="8" stroke-linecap="round"/>
<path d="M198.024 61.4134C182.341 66.6508 195.504 84.8647 205.93 77.4122C216.357 69.9597 205.608 58.8804 198.024 61.4134Z" stroke="#FFE5CC" stroke-width="8" stroke-linecap="round"/>
<path d="M229.811 53.9183C236.45 58.032 242.804 62.4433 249.665 66.1979" stroke="#FFE5CC" stroke-width="8" stroke-linecap="round"/>
<path d="M245.973 48.5524C240.965 55.5217 237.367 62.5208 232.986 69.6319" stroke="#FFE5CC" stroke-width="8" stroke-linecap="round"/>
<path d="M16.4352 151.481C32.635 148.176 30.343 170.53 17.587 169.29C4.83109 168.049 8.60007 153.08 16.4352 151.481Z" stroke="#FFE5CC" stroke-width="8" stroke-linecap="round"/>
<path d="M49.9614 139.379C51.1813 150.267 61.8383 145.686 64.6422 156.15" stroke="#FFE5CC" stroke-width="8" stroke-linecap="round"/>
<path d="M106.576 134.917C104.296 127.778 93.7632 130.885 96.3792 139.364C98.9952 147.843 86.6771 150.477 83.7458 139.537" stroke="#FFE5CC" stroke-width="8" stroke-linecap="round"/>
<path d="M139.707 119.472C136.014 126.355 132.717 133.352 128.652 140.034" stroke="#FFE5CC" stroke-width="8" stroke-linecap="round"/>
<path d="M123.027 122.906C130.849 126.438 137.464 130.701 144.814 134.668" stroke="#FFE5CC" stroke-width="8" stroke-linecap="round"/>
<path d="M170.983 110.07C187.183 106.765 184.891 129.119 172.135 127.879C159.379 126.638 163.148 111.669 170.983 110.07Z" stroke="#FFE5CC" stroke-width="8" stroke-linecap="round"/>
<path d="M204.509 97.9676C205.729 108.856 216.386 104.275 219.19 114.739" stroke="#FFE5CC" stroke-width="8" stroke-linecap="round"/>
<path d="M261.124 93.5062C258.845 86.3667 248.312 89.4743 250.928 97.9533C253.543 106.432 241.225 109.066 238.294 98.126" stroke="#FFE5CC" stroke-width="8" stroke-linecap="round"/>
<path d="M-21.3076 214.024C-19.0284 221.164 -8.49516 218.056 -11.1111 209.577C-13.7271 201.098 -1.40907 198.465 1.52231 209.405" stroke="#FFE5CC" stroke-width="8" stroke-linecap="round"/>
<path d="M35.3066 209.563C34.0868 198.674 23.4297 203.255 20.6259 192.791" stroke="#FFE5CC" stroke-width="8" stroke-linecap="round"/>
<path d="M68.8329 197.461C52.6331 200.766 54.9251 178.411 67.681 179.652C80.437 180.893 76.668 195.862 68.8329 197.461Z" stroke="#FFE5CC" stroke-width="8" stroke-linecap="round"/>
<path d="M100.109 188.058C103.803 181.176 107.1 174.178 111.164 167.496" stroke="#FFE5CC" stroke-width="8" stroke-linecap="round"/>
<path d="M116.789 184.624C108.968 181.093 102.352 176.83 95.0024 172.862" stroke="#FFE5CC" stroke-width="8" stroke-linecap="round"/>
<path d="M133.24 172.613C135.519 179.753 146.053 176.645 143.437 168.166C140.821 159.687 153.139 157.053 156.07 167.994" stroke="#FFE5CC" stroke-width="8" stroke-linecap="round"/>
<path d="M189.855 168.152C188.635 157.263 177.978 161.844 175.174 151.38" stroke="#FFE5CC" stroke-width="8" stroke-linecap="round"/>
<path d="M223.381 156.05C207.181 159.355 209.473 137 222.229 138.241C234.985 139.482 231.216 154.451 223.381 156.05Z" stroke="#FFE5CC" stroke-width="8" stroke-linecap="round"/>
<path d="M254.657 146.647C258.351 139.765 261.647 132.767 265.712 126.085" stroke="#FFE5CC" stroke-width="8" stroke-linecap="round"/>
<path d="M271.337 143.213C263.515 139.681 256.9 135.419 249.55 131.451" stroke="#FFE5CC" stroke-width="8" stroke-linecap="round"/>
<path d="M-11.812 249.461C-13.408 242.139 -2.73216 239.563 -0.758141 248.214C1.21588 256.865 13.2005 252.987 10.2691 242.047" stroke="#FFE5CC" stroke-width="8" stroke-linecap="round"/>
<path d="M39.4477 225.018C43.8357 235.058 32.3159 236.419 35.1197 246.883" stroke="#FFE5CC" stroke-width="8" stroke-linecap="round"/>
<path d="M74.5338 218.736C58.8516 223.973 72.014 242.187 82.4406 234.734C92.8672 227.282 82.1185 216.203 74.5338 218.736Z" stroke="#FFE5CC" stroke-width="8" stroke-linecap="round"/>
<path d="M106.321 211.24C112.961 215.354 119.314 219.765 126.176 223.52" stroke="#FFE5CC" stroke-width="8" stroke-linecap="round"/>
<path d="M122.483 205.875C117.475 212.844 113.877 219.843 109.496 226.954" stroke="#FFE5CC" stroke-width="8" stroke-linecap="round"/>
<path d="M142.736 208.05C141.14 200.728 151.816 198.152 153.79 206.803C155.764 215.454 167.748 211.576 164.817 200.636" stroke="#FFE5CC" stroke-width="8" stroke-linecap="round"/>
<path d="M193.996 183.607C198.384 193.647 186.864 195.008 189.668 205.472" stroke="#FFE5CC" stroke-width="8" stroke-linecap="round"/>
<path d="M229.082 177.325C213.4 182.562 226.562 200.776 236.989 193.323C247.416 185.871 236.667 174.791 229.082 177.325Z" stroke="#FFE5CC" stroke-width="8" stroke-linecap="round"/>
<path d="M260.869 169.829C267.508 173.943 273.862 178.354 280.723 182.109" stroke="#FFE5CC" stroke-width="8" stroke-linecap="round"/>
<path d="M277.031 164.464C272.023 171.433 268.425 178.432 264.044 185.543" stroke="#FFE5CC" stroke-width="8" stroke-linecap="round"/>
<path d="M81.0196 255.29C82.2394 266.178 92.8964 261.597 95.7003 272.062" stroke="#FFE5CC" stroke-width="8" stroke-linecap="round"/>
<path d="M137.634 250.828C135.355 243.689 124.822 246.796 127.438 255.275C130.054 263.754 117.736 266.388 114.804 255.448" stroke="#FFE5CC" stroke-width="8" stroke-linecap="round"/>
<path d="M170.765 235.384C167.072 242.266 163.775 249.263 159.71 255.945" stroke="#FFE5CC" stroke-width="8" stroke-linecap="round"/>
<path d="M154.086 238.818C161.907 242.349 168.522 246.612 175.872 250.58" stroke="#FFE5CC" stroke-width="8" stroke-linecap="round"/>
<path d="M202.042 225.981C218.241 222.676 215.949 245.031 203.193 243.79C190.438 242.549 194.207 227.58 202.042 225.981Z" stroke="#FFE5CC" stroke-width="8" stroke-linecap="round"/>
<path d="M235.568 213.879C236.788 224.767 247.445 220.186 250.249 230.65" stroke="#FFE5CC" stroke-width="8" stroke-linecap="round"/>
<path d="M254.439 271.961C238.24 275.266 240.532 252.911 253.287 254.152C266.043 255.393 262.274 270.362 254.439 271.961Z" stroke="#FFE5CC" stroke-width="8" stroke-linecap="round"/>
<g clip-path="url(#clip1_483_5454)">
<g filter="url(#filter0_d_483_5454)">
<mask id="path-64-outside-1_483_5454" maskUnits="userSpaceOnUse" x="25.7295" y="33.2" width="205" height="191" fill="black">
<rect fill="white" x="25.7295" y="33.2" width="205" height="191"/>
<path fill-rule="evenodd" clip-rule="evenodd" d="M92.4814 72.1946C93.2397 71.9418 93.9087 71.4753 94.408 70.8512L101.602 61.8584C102.946 60.1781 104.982 59.2 107.133 59.2C112.145 59.2 115.571 64.2612 113.71 68.914C113.578 69.2429 113.821 69.6008 114.175 69.6008H118.144C119.112 69.6008 120.028 69.1606 120.633 68.4045L125.869 61.8584C127.214 60.1781 129.249 59.2 131.401 59.2C136.412 59.2 139.838 64.2612 137.977 68.914C137.846 69.2429 138.088 69.6008 138.442 69.6008H142.411C143.379 69.6008 144.295 69.1606 144.9 68.4045L150.137 61.8584C151.481 60.1781 153.516 59.2 155.668 59.2C160.679 59.2 164.106 64.2612 162.244 68.914C161.619 70.4778 162.377 72.2597 163.941 72.8852C165.073 73.3383 166.367 73.0727 167.23 72.2101L170.437 69.0023C175.853 63.5871 184.632 63.5871 190.048 69.0024L194.95 73.905C200.366 79.3202 200.366 88.1001 194.95 93.5154L190.048 98.418C187.225 101.24 184.878 105.417 186.39 109.111L202.714 149.015C203.737 151.515 204.263 154.19 204.263 156.891V166.605C204.263 172.952 200.48 178.689 194.646 181.189L181.22 186.943C164.402 194.151 146.294 197.867 127.996 197.867C109.698 197.867 91.5905 194.151 74.7719 186.943L61.3464 181.189C55.5122 178.689 51.7295 172.952 51.7295 166.605V156.465C51.7295 154.041 52.1533 151.635 52.9818 149.357L68.7896 105.885C69.7454 103.257 68.415 100.396 66.4373 98.418L61.5347 93.5154C56.1194 88.1001 56.1194 79.3202 61.5347 73.905L66.4373 69.0023C71.8526 63.5871 80.6325 63.5871 86.0477 69.0024L88.2383 71.1929C89.3489 72.3035 90.9915 72.6912 92.4814 72.1946Z"/>
</mask>
<path fill-rule="evenodd" clip-rule="evenodd" d="M92.4814 72.1946C93.2397 71.9418 93.9087 71.4753 94.408 70.8512L101.602 61.8584C102.946 60.1781 104.982 59.2 107.133 59.2C112.145 59.2 115.571 64.2612 113.71 68.914C113.578 69.2429 113.821 69.6008 114.175 69.6008H118.144C119.112 69.6008 120.028 69.1606 120.633 68.4045L125.869 61.8584C127.214 60.1781 129.249 59.2 131.401 59.2C136.412 59.2 139.838 64.2612 137.977 68.914C137.846 69.2429 138.088 69.6008 138.442 69.6008H142.411C143.379 69.6008 144.295 69.1606 144.9 68.4045L150.137 61.8584C151.481 60.1781 153.516 59.2 155.668 59.2C160.679 59.2 164.106 64.2612 162.244 68.914C161.619 70.4778 162.377 72.2597 163.941 72.8852C165.073 73.3383 166.367 73.0727 167.23 72.2101L170.437 69.0023C175.853 63.5871 184.632 63.5871 190.048 69.0024L194.95 73.905C200.366 79.3202 200.366 88.1001 194.95 93.5154L190.048 98.418C187.225 101.24 184.878 105.417 186.39 109.111L202.714 149.015C203.737 151.515 204.263 154.19 204.263 156.891V166.605C204.263 172.952 200.48 178.689 194.646 181.189L181.22 186.943C164.402 194.151 146.294 197.867 127.996 197.867C109.698 197.867 91.5905 194.151 74.7719 186.943L61.3464 181.189C55.5122 178.689 51.7295 172.952 51.7295 166.605V156.465C51.7295 154.041 52.1533 151.635 52.9818 149.357L68.7896 105.885C69.7454 103.257 68.415 100.396 66.4373 98.418L61.5347 93.5154C56.1194 88.1001 56.1194 79.3202 61.5347 73.905L66.4373 69.0023C71.8526 63.5871 80.6325 63.5871 86.0477 69.0024L88.2383 71.1929C89.3489 72.3035 90.9915 72.6912 92.4814 72.1946Z" fill="white"/>
<path d="M101.602 61.8584L121.592 77.8506L121.593 77.8506L101.602 61.8584ZM125.869 61.8584L145.86 77.8506L145.86 77.8506L125.869 61.8584ZM150.137 61.8584L130.146 45.8662L130.146 45.8662L150.137 61.8584ZM170.437 69.0023L188.539 87.1043L188.539 87.1043L170.437 69.0023ZM190.048 69.0024L171.946 87.1043L171.946 87.1043L190.048 69.0024ZM194.95 73.905L213.052 55.803L213.052 55.803L194.95 73.905ZM194.95 93.5154L176.848 75.4134L176.848 75.4135L194.95 93.5154ZM202.714 149.015L179.02 158.708L179.02 158.708L202.714 149.015ZM194.646 181.189L204.73 204.719V204.719L194.646 181.189ZM181.22 186.943L171.136 163.413H171.136L181.22 186.943ZM74.7719 186.943L84.8562 163.413H84.8562L74.7719 186.943ZM61.3464 181.189L51.2621 204.719L51.2621 204.719L61.3464 181.189ZM52.9818 149.357L28.9231 140.608V140.608L52.9818 149.357ZM61.5347 93.5154L43.4328 111.617L43.4328 111.617L61.5347 93.5154ZM61.5347 73.905L43.4328 55.803L43.4328 55.803L61.5347 73.905ZM66.4373 69.0023L48.3354 50.9004L48.3354 50.9004L66.4373 69.0023ZM86.0477 69.0024L67.9458 87.1043L67.9458 87.1043L86.0477 69.0024ZM88.2383 71.1929L70.1364 89.2949L88.2383 71.1929ZM186.39 109.111L210.084 99.4181L186.39 109.111ZM144.9 68.4045L124.91 52.4123L144.9 68.4045ZM120.633 68.4045L100.642 52.4123L120.633 68.4045ZM167.23 72.2101L149.128 54.1082L167.23 72.2101ZM94.408 70.8512L114.398 86.8434L94.408 70.8512ZM81.612 45.8662L74.4178 54.859L114.398 86.8434L121.592 77.8506L81.612 45.8662ZM107.133 33.6C97.2047 33.6 87.8144 38.1132 81.612 45.8662L121.593 77.8506C118.079 82.2431 112.758 84.8 107.133 84.8V33.6ZM137.479 78.4216C146.066 56.9531 130.256 33.6 107.133 33.6V84.8C94.0335 84.8 85.0759 71.5694 89.9411 59.4064L137.479 78.4216ZM118.144 44.0008H114.175V95.2008H118.144V44.0008ZM105.879 45.8662L100.642 52.4123L140.623 84.3967L145.86 77.8506L105.879 45.8662ZM131.401 33.6C121.472 33.6 112.082 38.1132 105.879 45.8662L145.86 77.8506C142.346 82.2431 137.026 84.8 131.401 84.8V33.6ZM161.746 78.4216C170.334 56.9531 154.523 33.6 131.401 33.6V84.8C118.301 84.8 109.343 71.5693 114.208 59.4064L161.746 78.4216ZM142.411 44.0008H138.442V95.2008H142.411V44.0008ZM130.146 45.8662L124.91 52.4123L164.89 84.3967L170.127 77.8506L130.146 45.8662ZM155.668 33.6C145.739 33.6 136.349 38.1132 130.146 45.8662L170.127 77.8506C166.613 82.243 161.293 84.8 155.668 84.8V33.6ZM186.013 78.4215C194.601 56.9531 178.79 33.6 155.668 33.6V84.8C142.568 84.8 133.61 71.5693 138.475 59.4064L186.013 78.4215ZM152.335 50.9004L149.128 54.1082L185.331 90.312L188.539 87.1043L152.335 50.9004ZM208.15 50.9004C192.737 35.4877 167.748 35.4877 152.335 50.9004L188.539 87.1043C183.957 91.6864 176.528 91.6864 171.946 87.1043L208.15 50.9004ZM213.052 55.803L208.15 50.9004L171.946 87.1043L176.848 92.0069L213.052 55.803ZM213.052 111.617C228.465 96.2047 228.465 71.2157 213.052 55.803L176.848 92.0069C172.266 87.4247 172.266 79.9956 176.848 75.4134L213.052 111.617ZM208.15 116.52L213.052 111.617L176.848 75.4135L171.946 80.3161L208.15 116.52ZM226.408 139.322L210.084 99.4181L162.696 118.804L179.02 158.708L226.408 139.322ZM229.863 156.891C229.863 150.866 228.689 144.899 226.408 139.322L179.02 158.708C178.784 158.131 178.663 157.514 178.663 156.891H229.863ZM229.863 166.605V156.891H178.663V166.605H229.863ZM204.73 204.719C219.977 198.185 229.863 183.193 229.863 166.605H178.663C178.663 162.711 180.983 159.193 184.562 157.659L204.73 204.719ZM191.305 210.473L204.73 204.719L184.562 157.659L171.136 163.413L191.305 210.473ZM127.996 223.467C149.761 223.467 171.3 219.047 191.305 210.473L171.136 163.413C157.504 169.255 142.827 172.267 127.996 172.267V223.467ZM64.6875 210.473C84.6928 219.047 106.231 223.467 127.996 223.467V172.267C113.165 172.267 98.4883 169.255 84.8562 163.413L64.6875 210.473ZM51.2621 204.719L64.6875 210.473L84.8562 163.413L71.4307 157.659L51.2621 204.719ZM26.1295 166.605C26.1295 183.193 36.0152 198.185 51.2621 204.719L71.4308 157.659C75.0093 159.193 77.3295 162.711 77.3295 166.605H26.1295ZM26.1295 156.465V166.605H77.3295V156.465H26.1295ZM28.9231 140.608C27.0749 145.691 26.1295 151.057 26.1295 156.465H77.3295C77.3295 157.025 77.2317 157.58 77.0405 158.106L28.9231 140.608ZM44.7309 97.1368L28.9231 140.608L77.0405 158.106L92.8483 114.634L44.7309 97.1368ZM43.4328 111.617L48.3354 116.52L84.5392 80.3161L79.6366 75.4134L43.4328 111.617ZM43.4328 55.803C28.0201 71.2157 28.0201 96.2046 43.4328 111.617L79.6366 75.4135C84.2188 79.9956 84.2188 87.4247 79.6366 92.0069L43.4328 55.803ZM48.3354 50.9004L43.4328 55.803L79.6366 92.0069L84.5392 87.1043L48.3354 50.9004ZM104.15 50.9004C88.737 35.4877 63.7481 35.4877 48.3354 50.9004L84.5392 87.1043C79.9571 91.6864 72.528 91.6864 67.9458 87.1043L104.15 50.9004ZM106.34 53.091L104.15 50.9004L67.9458 87.1043L70.1364 89.2949L106.34 53.091ZM70.1364 89.2949C78.1034 97.2619 89.888 100.044 100.577 96.4809L84.386 47.9083C92.095 45.3386 100.594 47.345 106.34 53.091L70.1364 89.2949ZM92.8483 114.634C98.749 98.4072 89.6594 85.4362 84.5393 80.3161L48.3354 116.52C47.1484 115.333 45.6355 113.408 44.6004 110.505C43.5049 107.433 42.7614 102.553 44.7309 97.1368L92.8483 114.634ZM138.475 59.4064C132.63 74.02 139.665 90.7469 154.433 96.6542L173.448 49.1162C185.089 53.7725 190.608 66.9356 186.013 78.4216L138.475 59.4064ZM171.946 80.3161C168.81 83.452 165.222 87.9928 162.856 93.8515C160.436 99.8447 158.684 108.998 162.696 118.804L210.084 99.4181C212.584 105.529 211.25 110.748 210.331 113.024C209.466 115.165 208.463 116.206 208.15 116.52L171.946 80.3161ZM142.411 95.2008C151.156 95.2008 159.427 91.2255 164.89 84.3967L124.91 52.4123C129.163 47.0957 135.602 44.0008 142.411 44.0008V95.2008ZM118.144 95.2008C126.889 95.2008 135.16 91.2255 140.623 84.3967L100.642 52.4123C104.896 47.0957 111.335 44.0008 118.144 44.0008V95.2008ZM114.208 59.4064C107.35 76.5511 119.977 95.2008 138.442 95.2008V44.0008C156.199 44.0008 168.341 61.9347 161.746 78.4216L114.208 59.4064ZM154.433 96.6542C165.074 100.911 177.228 98.416 185.331 90.312L149.128 54.1082C155.506 47.7295 165.073 45.766 173.448 49.1162L154.433 96.6542ZM89.941 59.4064C83.0832 76.5511 95.7097 95.2008 114.175 95.2008V44.0008C131.932 44.0008 144.074 61.9348 137.479 78.4216L89.941 59.4064ZM74.4178 54.859C77.0011 51.6298 80.4628 49.216 84.386 47.9083L100.577 96.4809C106.017 94.6677 110.816 91.3209 114.398 86.8434L74.4178 54.859Z" fill="white" mask="url(#path-64-outside-1_483_5454)"/>
<mask id="path-66-outside-2_483_5454" maskUnits="userSpaceOnUse" x="38.7295" y="46.2" width="179" height="165" fill="black">
<rect fill="white" x="38.7295" y="46.2" width="179" height="165"/>
<path fill-rule="evenodd" clip-rule="evenodd" d="M92.4814 72.1946C93.2397 71.9418 93.9087 71.4753 94.408 70.8512L101.602 61.8584C102.946 60.1781 104.982 59.2 107.133 59.2C112.145 59.2 115.571 64.2612 113.71 68.914C113.578 69.2429 113.821 69.6008 114.175 69.6008H118.144C119.112 69.6008 120.028 69.1606 120.633 68.4045L125.869 61.8584C127.214 60.1781 129.249 59.2 131.401 59.2C136.412 59.2 139.838 64.2612 137.977 68.914C137.846 69.2429 138.088 69.6008 138.442 69.6008H142.411C143.379 69.6008 144.295 69.1606 144.9 68.4045L150.137 61.8584C151.481 60.1781 153.516 59.2 155.668 59.2C160.679 59.2 164.106 64.2612 162.244 68.914C161.619 70.4778 162.377 72.2597 163.941 72.8852C165.073 73.3383 166.367 73.0727 167.23 72.2101L170.437 69.0023C175.853 63.5871 184.632 63.5871 190.048 69.0024L194.95 73.905C200.366 79.3202 200.366 88.1001 194.95 93.5154L190.048 98.418C187.225 101.24 184.878 105.417 186.39 109.111L202.714 149.015C203.737 151.515 204.263 154.19 204.263 156.891V166.605C204.263 172.952 200.48 178.689 194.646 181.189L181.22 186.943C164.402 194.151 146.294 197.867 127.996 197.867C109.698 197.867 91.5905 194.151 74.7719 186.943L61.3464 181.189C55.5122 178.689 51.7295 172.952 51.7295 166.605V156.465C51.7295 154.041 52.1533 151.635 52.9818 149.357L68.7896 105.885C69.7454 103.257 68.415 100.396 66.4373 98.418L61.5347 93.5154C56.1194 88.1001 56.1194 79.3202 61.5347 73.905L66.4373 69.0023C71.8526 63.5871 80.6325 63.5871 86.0477 69.0024L88.2383 71.1929C89.3489 72.3035 90.9915 72.6912 92.4814 72.1946Z"/>
</mask>
<path fill-rule="evenodd" clip-rule="evenodd" d="M92.4814 72.1946C93.2397 71.9418 93.9087 71.4753 94.408 70.8512L101.602 61.8584C102.946 60.1781 104.982 59.2 107.133 59.2C112.145 59.2 115.571 64.2612 113.71 68.914C113.578 69.2429 113.821 69.6008 114.175 69.6008H118.144C119.112 69.6008 120.028 69.1606 120.633 68.4045L125.869 61.8584C127.214 60.1781 129.249 59.2 131.401 59.2C136.412 59.2 139.838 64.2612 137.977 68.914C137.846 69.2429 138.088 69.6008 138.442 69.6008H142.411C143.379 69.6008 144.295 69.1606 144.9 68.4045L150.137 61.8584C151.481 60.1781 153.516 59.2 155.668 59.2C160.679 59.2 164.106 64.2612 162.244 68.914C161.619 70.4778 162.377 72.2597 163.941 72.8852C165.073 73.3383 166.367 73.0727 167.23 72.2101L170.437 69.0023C175.853 63.5871 184.632 63.5871 190.048 69.0024L194.95 73.905C200.366 79.3202 200.366 88.1001 194.95 93.5154L190.048 98.418C187.225 101.24 184.878 105.417 186.39 109.111L202.714 149.015C203.737 151.515 204.263 154.19 204.263 156.891V166.605C204.263 172.952 200.48 178.689 194.646 181.189L181.22 186.943C164.402 194.151 146.294 197.867 127.996 197.867C109.698 197.867 91.5905 194.151 74.7719 186.943L61.3464 181.189C55.5122 178.689 51.7295 172.952 51.7295 166.605V156.465C51.7295 154.041 52.1533 151.635 52.9818 149.357L68.7896 105.885C69.7454 103.257 68.415 100.396 66.4373 98.418L61.5347 93.5154C56.1194 88.1001 56.1194 79.3202 61.5347 73.905L66.4373 69.0023C71.8526 63.5871 80.6325 63.5871 86.0477 69.0024L88.2383 71.1929C89.3489 72.3035 90.9915 72.6912 92.4814 72.1946Z" fill="white"/>
<path d="M101.602 61.8584L111.597 69.8545V69.8545L101.602 61.8584ZM125.869 61.8584L135.865 69.8545L135.865 69.8545L125.869 61.8584ZM150.137 61.8584L140.142 53.8623L140.142 53.8623L150.137 61.8584ZM170.437 69.0023L179.488 78.0533V78.0533L170.437 69.0023ZM190.048 69.0024L180.997 78.0533V78.0533L190.048 69.0024ZM194.95 73.905L204.001 64.854L204.001 64.854L194.95 73.905ZM194.95 93.5154L185.899 84.4644L185.899 84.4644L194.95 93.5154ZM202.714 149.015L190.867 153.862V153.862L202.714 149.015ZM194.646 181.189L199.688 192.954H199.688L194.646 181.189ZM181.22 186.943L176.178 175.178H176.178L181.22 186.943ZM74.7719 186.943L79.814 175.178H79.814L74.7719 186.943ZM61.3464 181.189L56.3042 192.954L56.3042 192.954L61.3464 181.189ZM52.9818 149.357L40.9524 144.983H40.9524L52.9818 149.357ZM61.5347 93.5154L52.4837 102.566L52.4837 102.566L61.5347 93.5154ZM61.5347 73.905L52.4837 64.854L52.4837 64.854L61.5347 73.905ZM66.4373 69.0023L57.3863 59.9514L57.3863 59.9514L66.4373 69.0023ZM86.0477 69.0024L76.9968 78.0533L76.9968 78.0533L86.0477 69.0024ZM88.2383 71.1929L79.1874 80.2439L88.2383 71.1929ZM186.39 109.111L198.237 104.265L186.39 109.111ZM144.9 68.4045L134.905 60.4084L144.9 68.4045ZM120.633 68.4045L110.637 60.4084L120.633 68.4045ZM167.23 72.2101L158.179 63.1591L167.23 72.2101ZM94.408 70.8512L104.403 78.8473L94.408 70.8512ZM91.6071 53.8623L84.4129 62.8551L104.403 78.8473L111.597 69.8545L91.6071 53.8623ZM107.133 46.4C101.093 46.4 95.3804 49.1457 91.6071 53.8623L111.597 69.8545C110.513 71.2106 108.87 72 107.133 72V46.4ZM125.595 73.6678C130.819 60.6071 121.2 46.4 107.133 46.4V72C103.089 72 100.324 67.9153 101.826 64.1602L125.595 73.6678ZM118.144 56.8008H114.175V82.4008H118.144V56.8008ZM115.874 53.8623L110.637 60.4084L130.628 76.4006L135.865 69.8545L115.874 53.8623ZM131.401 46.4C125.36 46.4 119.648 49.1457 115.874 53.8623L135.865 69.8545C134.78 71.2106 133.137 72 131.401 72V46.4ZM149.862 73.6678C155.086 60.6071 145.467 46.4 131.401 46.4V72C127.356 72 124.591 67.9153 126.093 64.1602L149.862 73.6678ZM142.411 56.8008H138.442V82.4008H142.411V56.8008ZM140.142 53.8623L134.905 60.4084L154.895 76.4006L160.132 69.8545L140.142 53.8623ZM155.668 46.4C149.628 46.4 143.915 49.1457 140.142 53.8623L160.132 69.8545C159.047 71.2106 157.404 72 155.668 72V46.4ZM174.129 73.6678C179.353 60.6072 169.735 46.4 155.668 46.4V72C151.623 72 148.858 67.9153 150.36 64.1602L174.129 73.6678ZM161.386 59.9514L158.179 63.1591L176.281 81.2611L179.488 78.0533L161.386 59.9514ZM199.099 59.9514C188.685 49.5374 171.8 49.5374 161.386 59.9514L179.488 78.0533C179.905 77.6368 180.58 77.6368 180.997 78.0533L199.099 59.9514ZM204.001 64.854L199.099 59.9514L180.997 78.0533L185.899 82.9559L204.001 64.854ZM204.001 102.566C214.415 92.1524 214.415 75.268 204.001 64.854L185.899 82.9559C186.316 83.3725 186.316 84.0478 185.899 84.4644L204.001 102.566ZM199.099 107.469L204.001 102.566L185.899 84.4644L180.997 89.367L199.099 107.469ZM214.561 144.169L198.237 104.265L174.543 113.958L190.867 153.862L214.561 144.169ZM217.063 156.891C217.063 152.528 216.213 148.207 214.561 144.169L190.867 153.862C191.261 154.823 191.463 155.852 191.463 156.891H217.063ZM217.063 166.605V156.891H191.463V166.605H217.063ZM199.688 192.954C210.229 188.437 217.063 178.072 217.063 166.605H191.463C191.463 167.832 190.732 168.941 189.604 169.424L199.688 192.954ZM186.263 198.708L199.688 192.954L189.604 169.424L176.178 175.178L186.263 198.708ZM127.996 210.667C148.028 210.667 167.851 206.599 186.263 198.708L176.178 175.178C160.953 181.703 144.561 185.067 127.996 185.067V210.667ZM69.7297 198.708C88.1417 206.599 107.965 210.667 127.996 210.667V185.067C111.431 185.067 95.0394 181.703 79.814 175.178L69.7297 198.708ZM56.3042 192.954L69.7297 198.708L79.814 175.178L66.3886 169.424L56.3042 192.954ZM38.9295 166.605C38.9295 178.072 45.7637 188.437 56.3042 192.954L66.3886 169.424C65.2607 168.941 64.5295 167.832 64.5295 166.605H38.9295ZM38.9295 156.465V166.605H64.5295V156.465H38.9295ZM40.9524 144.983C39.6141 148.663 38.9295 152.549 38.9295 156.465H64.5295C64.5295 155.533 64.6925 154.608 65.0111 153.731L40.9524 144.983ZM56.7603 101.511L40.9524 144.983L65.0111 153.731L80.819 110.26L56.7603 101.511ZM52.4837 102.566L57.3863 107.469L75.4883 89.367L70.5857 84.4644L52.4837 102.566ZM52.4837 64.854C42.0698 75.268 42.0698 92.1524 52.4837 102.566L70.5857 84.4644C70.1691 84.0479 70.1691 83.3725 70.5857 82.9559L52.4837 64.854ZM57.3863 59.9514L52.4837 64.854L70.5857 82.9559L75.4883 78.0533L57.3863 59.9514ZM95.0987 59.9514C84.6847 49.5374 67.8003 49.5374 57.3863 59.9514L75.4883 78.0533C75.9048 77.6368 76.5802 77.6368 76.9968 78.0533L95.0987 59.9514ZM97.2893 62.142L95.0987 59.9514L76.9968 78.0533L79.1874 80.2439L97.2893 62.142ZM79.1874 80.2439C83.7261 84.7827 90.4397 86.3675 96.5292 84.3377L88.4337 60.0514C91.5433 59.0149 94.9716 59.8242 97.2893 62.142L79.1874 80.2439ZM80.819 110.26C84.2472 100.832 79.0372 92.9159 75.4883 89.367L57.3863 107.469C57.2873 107.37 56.9443 107.012 56.657 106.206C56.3394 105.316 56.0145 103.562 56.7603 101.511L80.819 110.26ZM150.36 64.1602C147.124 72.2489 151.021 81.5033 159.187 84.7697L168.694 61.0007C173.733 63.0161 176.113 68.7067 174.129 73.6678L150.36 64.1602ZM180.997 89.367C178.723 91.6406 176.283 94.7859 174.725 98.6446C173.139 102.57 172.159 108.131 174.543 113.958L198.237 104.265C199.109 106.397 198.547 108.022 198.462 108.231C198.414 108.351 198.418 108.301 198.553 108.109C198.683 107.923 198.87 107.698 199.099 107.469L180.997 89.367ZM142.411 82.4008C147.267 82.4008 151.861 80.1931 154.895 76.4006L134.905 60.4084C136.729 58.1282 139.491 56.8008 142.411 56.8008V82.4008ZM118.144 82.4008C123 82.4008 127.594 80.1931 130.628 76.4006L110.637 60.4084C112.462 58.1282 115.223 56.8008 118.144 56.8008V82.4008ZM126.093 64.1602C122.598 72.897 129.032 82.4008 138.442 82.4008V56.8008C147.143 56.8008 153.093 65.5888 149.862 73.6678L126.093 64.1602ZM159.187 84.7697C165.074 87.1244 171.797 85.7443 176.281 81.2611L158.179 63.1591C160.937 60.4011 165.073 59.5521 168.694 61.0007L159.187 84.7697ZM101.826 64.1602C98.3308 72.897 104.765 82.4008 114.175 82.4008V56.8008C122.876 56.8008 128.826 65.5889 125.595 73.6678L101.826 64.1602ZM84.4129 62.8551C85.4549 61.5526 86.8512 60.5789 88.4337 60.0514L96.5292 84.3377C99.6281 83.3047 102.362 81.3981 104.403 78.8473L84.4129 62.8551Z" fill="#10100F" mask="url(#path-66-outside-2_483_5454)"/>
<path d="M105.143 169.6L73.5711 172.056C68.1691 172.476 64 176.982 64 182.4C64 191.237 71.1634 198.4 80 198.4H178.703C186.047 198.4 192 192.447 192 185.103C192 178.159 186.657 172.384 179.734 171.846L150.857 169.6H105.143Z" fill="url(#paint0_linear_483_5454)"/>
<path d="M100.85 160C92.7409 160 87.4667 151.466 91.0932 144.213L104.844 116.711C109.23 107.94 118.194 102.4 128 102.4C137.806 102.4 146.77 107.94 151.155 116.711L164.906 144.213C168.533 151.466 163.258 160 155.149 160C154.12 160 153.095 159.874 152.096 159.624L128 153.6L103.903 159.624C102.905 159.874 101.879 160 100.85 160Z" fill="url(#paint1_linear_483_5454)"/>
<rect x="121.6" y="128" width="12.8" height="19.2" fill="url(#paint2_linear_483_5454)"/>
<path d="M139.924 115.2C145.484 115.2 148.114 122.056 143.982 125.775L139.156 130.119C136.094 132.875 132.119 134.4 127.999 134.4C123.879 134.4 119.905 132.875 116.842 130.119L112.016 125.775C107.884 122.056 110.514 115.2 116.074 115.2H127.999H139.924Z" fill="#10100F"/>
<path d="M147.2 147.2C146.067 149.036 143.572 150.658 140.1 151.816C136.629 152.973 132.375 153.6 128 153.6C123.624 153.6 119.371 152.973 115.899 151.816C112.428 150.658 109.932 149.036 108.8 147.2" stroke="#10100F" stroke-width="12.8" stroke-linecap="round" stroke-linejoin="round"/>
<circle cx="92.7998" cy="105.6" r="16" fill="white"/>
<circle cx="92.7997" cy="105.6" r="9.6" fill="#10100F"/>
<circle cx="163.2" cy="105.6" r="16" fill="white"/>
<circle cx="163.2" cy="105.6" r="9.6" fill="#10100F"/>
<path d="M83.2 76.8C86.7346 80.3346 86.7346 86.0654 83.2 89.6C79.6654 93.1346 73.9346 93.1346 70.4 89.6C66.8654 86.0654 66.8654 80.3346 70.4 76.8C73.9346 73.2654 79.6654 73.2654 83.2 76.8Z" fill="#CECECE"/>
<path d="M185.6 76.8C189.135 80.3346 189.135 86.0654 185.6 89.6C182.065 93.1346 176.335 93.1346 172.8 89.6C169.265 86.0654 169.265 80.3346 172.8 76.8C176.335 73.2654 182.065 73.2654 185.6 76.8Z" fill="#CECECE"/>
<mask id="path-79-outside-3_483_5454" maskUnits="userSpaceOnUse" x="38.7295" y="46.2" width="179" height="165" fill="black">
<rect fill="white" x="38.7295" y="46.2" width="179" height="165"/>
<path fill-rule="evenodd" clip-rule="evenodd" d="M92.4814 72.1946C93.2397 71.9418 93.9087 71.4753 94.408 70.8512L101.602 61.8584C102.946 60.1781 104.982 59.2 107.133 59.2C112.145 59.2 115.571 64.2612 113.71 68.914C113.578 69.2429 113.821 69.6008 114.175 69.6008H118.144C119.112 69.6008 120.028 69.1606 120.633 68.4045L125.869 61.8584C127.214 60.1781 129.249 59.2 131.401 59.2C136.412 59.2 139.838 64.2612 137.977 68.914C137.846 69.2429 138.088 69.6008 138.442 69.6008H142.411C143.379 69.6008 144.295 69.1606 144.9 68.4045L150.137 61.8584C151.481 60.1781 153.516 59.2 155.668 59.2C160.679 59.2 164.106 64.2612 162.244 68.914C161.619 70.4778 162.377 72.2597 163.941 72.8852C165.073 73.3383 166.367 73.0727 167.23 72.2101L170.437 69.0023C175.853 63.5871 184.632 63.5871 190.048 69.0024L194.95 73.905C200.366 79.3202 200.366 88.1001 194.95 93.5154L190.048 98.418C187.225 101.24 184.878 105.417 186.39 109.111L202.714 149.015C203.737 151.515 204.263 154.19 204.263 156.891V166.605C204.263 172.952 200.48 178.689 194.646 181.189L181.22 186.943C164.402 194.151 146.294 197.867 127.996 197.867C109.698 197.867 91.5905 194.151 74.7719 186.943L61.3464 181.189C55.5122 178.689 51.7295 172.952 51.7295 166.605V156.465C51.7295 154.041 52.1533 151.635 52.9818 149.357L68.7896 105.885C69.7454 103.257 68.415 100.396 66.4373 98.418L61.5347 93.5154C56.1194 88.1001 56.1194 79.3202 61.5347 73.905L66.4373 69.0023C71.8526 63.5871 80.6325 63.5871 86.0477 69.0024L88.2383 71.1929C89.3489 72.3035 90.9915 72.6912 92.4814 72.1946Z"/>
</mask>
<path d="M101.602 61.8584L111.597 69.8545V69.8545L101.602 61.8584ZM125.869 61.8584L135.865 69.8545L135.865 69.8545L125.869 61.8584ZM150.137 61.8584L140.142 53.8623L140.142 53.8623L150.137 61.8584ZM170.437 69.0023L179.488 78.0533V78.0533L170.437 69.0023ZM190.048 69.0024L180.997 78.0533V78.0533L190.048 69.0024ZM194.95 73.905L204.001 64.854L204.001 64.854L194.95 73.905ZM194.95 93.5154L185.899 84.4644L185.899 84.4644L194.95 93.5154ZM202.714 149.015L190.867 153.862V153.862L202.714 149.015ZM194.646 181.189L199.688 192.954H199.688L194.646 181.189ZM181.22 186.943L176.178 175.178H176.178L181.22 186.943ZM74.7719 186.943L79.814 175.178H79.814L74.7719 186.943ZM61.3464 181.189L56.3042 192.954L56.3042 192.954L61.3464 181.189ZM52.9818 149.357L40.9524 144.983H40.9524L52.9818 149.357ZM61.5347 93.5154L52.4837 102.566L52.4837 102.566L61.5347 93.5154ZM61.5347 73.905L52.4837 64.854L52.4837 64.854L61.5347 73.905ZM66.4373 69.0023L57.3863 59.9514L57.3863 59.9514L66.4373 69.0023ZM86.0477 69.0024L76.9968 78.0533L76.9968 78.0533L86.0477 69.0024ZM88.2383 71.1929L79.1874 80.2439L88.2383 71.1929ZM186.39 109.111L198.237 104.265L186.39 109.111ZM144.9 68.4045L134.905 60.4084L144.9 68.4045ZM120.633 68.4045L110.637 60.4084L120.633 68.4045ZM167.23 72.2101L158.179 63.1591L167.23 72.2101ZM94.408 70.8512L104.403 78.8473L94.408 70.8512ZM91.6071 53.8623L84.4129 62.8551L104.403 78.8473L111.597 69.8545L91.6071 53.8623ZM107.133 46.4C101.093 46.4 95.3804 49.1457 91.6071 53.8623L111.597 69.8545C110.513 71.2106 108.87 72 107.133 72V46.4ZM125.595 73.6678C130.819 60.6071 121.2 46.4 107.133 46.4V72C103.089 72 100.324 67.9153 101.826 64.1602L125.595 73.6678ZM118.144 56.8008H114.175V82.4008H118.144V56.8008ZM115.874 53.8623L110.637 60.4084L130.628 76.4006L135.865 69.8545L115.874 53.8623ZM131.401 46.4C125.36 46.4 119.648 49.1457 115.874 53.8623L135.865 69.8545C134.78 71.2106 133.137 72 131.401 72V46.4ZM149.862 73.6678C155.086 60.6071 145.467 46.4 131.401 46.4V72C127.356 72 124.591 67.9153 126.093 64.1602L149.862 73.6678ZM142.411 56.8008H138.442V82.4008H142.411V56.8008ZM140.142 53.8623L134.905 60.4084L154.895 76.4006L160.132 69.8545L140.142 53.8623ZM155.668 46.4C149.628 46.4 143.915 49.1457 140.142 53.8623L160.132 69.8545C159.047 71.2106 157.404 72 155.668 72V46.4ZM174.129 73.6678C179.353 60.6072 169.735 46.4 155.668 46.4V72C151.623 72 148.858 67.9153 150.36 64.1602L174.129 73.6678ZM161.386 59.9514L158.179 63.1591L176.281 81.2611L179.488 78.0533L161.386 59.9514ZM199.099 59.9514C188.685 49.5374 171.8 49.5374 161.386 59.9514L179.488 78.0533C179.905 77.6368 180.58 77.6368 180.997 78.0533L199.099 59.9514ZM204.001 64.854L199.099 59.9514L180.997 78.0533L185.899 82.9559L204.001 64.854ZM204.001 102.566C214.415 92.1524 214.415 75.268 204.001 64.854L185.899 82.9559C186.316 83.3725 186.316 84.0478 185.899 84.4644L204.001 102.566ZM199.099 107.469L204.001 102.566L185.899 84.4644L180.997 89.367L199.099 107.469ZM214.561 144.169L198.237 104.265L174.543 113.958L190.867 153.862L214.561 144.169ZM217.063 156.891C217.063 152.528 216.213 148.207 214.561 144.169L190.867 153.862C191.261 154.823 191.463 155.852 191.463 156.891H217.063ZM217.063 166.605V156.891H191.463V166.605H217.063ZM199.688 192.954C210.229 188.437 217.063 178.072 217.063 166.605H191.463C191.463 167.832 190.732 168.941 189.604 169.424L199.688 192.954ZM186.263 198.708L199.688 192.954L189.604 169.424L176.178 175.178L186.263 198.708ZM127.996 210.667C148.028 210.667 167.851 206.599 186.263 198.708L176.178 175.178C160.953 181.703 144.561 185.067 127.996 185.067V210.667ZM69.7297 198.708C88.1417 206.599 107.965 210.667 127.996 210.667V185.067C111.431 185.067 95.0394 181.703 79.814 175.178L69.7297 198.708ZM56.3042 192.954L69.7297 198.708L79.814 175.178L66.3886 169.424L56.3042 192.954ZM38.9295 166.605C38.9295 178.072 45.7637 188.437 56.3042 192.954L66.3886 169.424C65.2607 168.941 64.5295 167.832 64.5295 166.605H38.9295ZM38.9295 156.465V166.605H64.5295V156.465H38.9295ZM40.9524 144.983C39.6141 148.663 38.9295 152.549 38.9295 156.465H64.5295C64.5295 155.533 64.6925 154.608 65.0111 153.731L40.9524 144.983ZM56.7603 101.511L40.9524 144.983L65.0111 153.731L80.819 110.26L56.7603 101.511ZM52.4837 102.566L57.3863 107.469L75.4883 89.367L70.5857 84.4644L52.4837 102.566ZM52.4837 64.854C42.0698 75.268 42.0698 92.1524 52.4837 102.566L70.5857 84.4644C70.1691 84.0479 70.1691 83.3725 70.5857 82.9559L52.4837 64.854ZM57.3863 59.9514L52.4837 64.854L70.5857 82.9559L75.4883 78.0533L57.3863 59.9514ZM95.0987 59.9514C84.6847 49.5374 67.8003 49.5374 57.3863 59.9514L75.4883 78.0533C75.9048 77.6368 76.5802 77.6368 76.9968 78.0533L95.0987 59.9514ZM97.2893 62.142L95.0987 59.9514L76.9968 78.0533L79.1874 80.2439L97.2893 62.142ZM79.1874 80.2439C83.7261 84.7827 90.4397 86.3675 96.5292 84.3377L88.4337 60.0514C91.5433 59.0149 94.9716 59.8242 97.2893 62.142L79.1874 80.2439ZM80.819 110.26C84.2472 100.832 79.0372 92.9159 75.4883 89.367L57.3863 107.469C57.2873 107.37 56.9443 107.012 56.657 106.206C56.3394 105.316 56.0145 103.562 56.7603 101.511L80.819 110.26ZM150.36 64.1602C147.124 72.2489 151.021 81.5033 159.187 84.7697L168.694 61.0007C173.733 63.0161 176.113 68.7067 174.129 73.6678L150.36 64.1602ZM180.997 89.367C178.723 91.6406 176.283 94.7859 174.725 98.6446C173.139 102.57 172.159 108.131 174.543 113.958L198.237 104.265C199.109 106.397 198.547 108.022 198.462 108.231C198.414 108.351 198.418 108.301 198.553 108.109C198.683 107.923 198.87 107.698 199.099 107.469L180.997 89.367ZM142.411 82.4008C147.267 82.4008 151.861 80.1931 154.895 76.4006L134.905 60.4084C136.729 58.1282 139.491 56.8008 142.411 56.8008V82.4008ZM118.144 82.4008C123 82.4008 127.594 80.1931 130.628 76.4006L110.637 60.4084C112.462 58.1282 115.223 56.8008 118.144 56.8008V82.4008ZM126.093 64.1602C122.598 72.897 129.032 82.4008 138.442 82.4008V56.8008C147.143 56.8008 153.093 65.5888 149.862 73.6678L126.093 64.1602ZM159.187 84.7697C165.074 87.1244 171.797 85.7443 176.281 81.2611L158.179 63.1591C160.937 60.4011 165.073 59.5521 168.694 61.0007L159.187 84.7697ZM101.826 64.1602C98.3308 72.897 104.765 82.4008 114.175 82.4008V56.8008C122.876 56.8008 128.826 65.5889 125.595 73.6678L101.826 64.1602ZM84.4129 62.8551C85.4549 61.5526 86.8512 60.5789 88.4337 60.0514L96.5292 84.3377C99.6281 83.3047 102.362 81.3981 104.403 78.8473L84.4129 62.8551Z" fill="#10100F" mask="url(#path-79-outside-3_483_5454)"/>
</g>
</g>
</g>
<defs>
<filter id="filter0_d_483_5454" x="24.0001" y="24.8" width="208" height="208" filterUnits="userSpaceOnUse" color-interpolation-filters="sRGB">
<feFlood flood-opacity="0" result="BackgroundImageFix"/>
<feColorMatrix in="SourceAlpha" type="matrix" values="0 0 0 0 0 0 0 0 0 0 0 0 0 0 0 0 0 0 127 0" result="hardAlpha"/>
<feOffset dy="0.8"/>
<feGaussianBlur stdDeviation="0.8"/>
<feComposite in2="hardAlpha" operator="out"/>
<feColorMatrix type="matrix" values="0 0 0 0 0 0 0 0 0 0 0 0 0 0 0 0 0 0 0.05 0"/>
<feBlend mode="normal" in2="BackgroundImageFix" result="effect1_dropShadow_483_5454"/>
<feBlend mode="normal" in="SourceGraphic" in2="effect1_dropShadow_483_5454" result="shape"/>
</filter>
<linearGradient id="paint0_linear_483_5454" x1="130.286" y1="163.2" x2="130.286" y2="192" gradientUnits="userSpaceOnUse">
<stop stop-color="white"/>
<stop offset="1" stop-color="#D2D2D2"/>
</linearGradient>
<linearGradient id="paint1_linear_483_5454" x1="127.996" y1="112" x2="127.996" y2="131.2" gradientUnits="userSpaceOnUse">
<stop stop-color="#F5F5F5"/>
<stop offset="1" stop-color="#E6E6E6"/>
</linearGradient>
<linearGradient id="paint2_linear_483_5454" x1="128" y1="128" x2="128" y2="147.2" gradientUnits="userSpaceOnUse">
<stop stop-color="#2E2E2E"/>
<stop offset="1" stop-color="#333333"/>
</linearGradient>
<clipPath id="clip0_483_5454">
<rect width="256" height="256" fill="white"/>
</clipPath>
<clipPath id="clip1_483_5454">
<rect width="256" height="256" fill="white"/>
</clipPath>
</defs>
</svg>
